<?xml version="1.0" standalone="no"?>
<!DOCTYPE svg PUBLIC "-//W3C//DTD SVG 20010904//EN"
 "http://www.w3.org/TR/2001/REC-SVG-20010904/DTD/svg10.dtd">
<svg version="1.0" xmlns="http://www.w3.org/2000/svg"
 width="360.000000pt" height="360.000000pt" viewBox="0 0 360.000000 360.000000"
 preserveAspectRatio="xMidYMid meet">
<metadata>
Created by potrace 1.11, written by Peter Selinger 2001-2013
</metadata>
<g transform="translate(0.000000,360.000000) scale(0.100000,-0.100000)"
fill="#000000" stroke="none">
<path d="M0 1800 l0 -1800 212 0 212 0 -31 32 c-69 74 -146 348 -173 617 -6
63 -10 527 -10 1206 l0 1102 118 114 c227 221 422 365 630 466 62 30 115 53
116 51 28 -34 31 -90 36 -631 l5 -559 50 69 c68 93 207 236 280 288 193 137
454 199 734 175 386 -34 698 -229 933 -585 165 -249 267 -535 314 -885 21
-155 24 -536 5 -695 -30 -252 -95 -499 -180 -680 l-40 -85 195 0 194 0 0 1800
0 1800 -1800 0 -1800 0 0 -1800z"/>
<path d="M1670 2175 c-285 -57 -471 -259 -550 -598 -69 -295 -46 -735 51 -988
112 -291 365 -455 674 -436 197 13 308 60 436 188 75 74 94 99 138 190 52 107
90 234 113 374 19 124 16 479 -5 590 -48 243 -126 397 -271 532 -145 136 -367
192 -586 148z"/>
</g>
</svg>
