<svg width="35" height="35" viewBox="0 0 35 35" fill="none" xmlns="http://www.w3.org/2000/svg">
    <rect width="35" height="35" fill="#1EA79D"/>
    <path fill-rule="evenodd" clip-rule="evenodd"
          d="M17.9657 13.7652C15.5414 13.7652 13.6804 14.5987 12.381 16.2614C11.0828 18.0095 10.4327 20.3812 10.4327 23.3772C10.4327 26.8724 11.0379 29.4118 12.2512 30.9916C13.5506 32.7391 15.3685 33.6128 17.7065 33.6128C20.1292 33.6128 21.9924 32.7391 23.2912 30.9916C24.5905 29.2436 25.2404 26.7056 25.2404 23.3772C25.2404 20.3812 24.5905 18.0527 23.2912 16.3862C21.9924 14.6387 20.2171 13.7652 17.9657 13.7652Z"
          fill="white"/>
    <path fill-rule="evenodd" clip-rule="evenodd"
          d="M35 0H0V34.8933H3.48326C3.241 34.8933 3.03191 34.5495 2.7997 34.323C1.82791 32.2188 1.21739 29.6731 1.21739 26.4903V6.26214C3.95652 3.53234 6.60617 1.38881 9.99661 0.0806155C10.1327 0.501441 10.3478 0.94994 10.3478 1.42491V11.7082C11.5652 10.0818 12.6657 8.7519 14.487 7.72285C16.0473 6.86796 17.8482 6.43751 20.1046 6.43751C24.1783 6.43751 27.5581 8.10938 30.1593 11.4507C32.7612 14.7929 34.0635 19.0298 34.0635 24.342C34.0635 28.4949 33.2643 31.8853 31.6753 34.8933H35V0Z"
          fill="white"/>
</svg>
