<svg width="1919" height="985" viewBox="0 0 1919 985" fill="none" xmlns="http://www.w3.org/2000/svg">
    <g clip-path="url(#clip0)">
        <g clip-path="url(#clip1)">
            <path d="M-2 1030L1917 1030L1917 -139L-2 -139L-2 1030Z" fill="white"/>
            <rect width="1919" height="1169" transform="matrix(1 0 0 -1 -2 1030)" fill="url(#paint0_linear)"/>
            <ellipse rx="1350.37" ry="567.292" transform="matrix(1 0 0 -1 2431.81 7.45197)" fill="#C77BD4"
                     fill-opacity="0.53"/>
            <g filter="url(#filter0_d)">
                <ellipse rx="1404.6" ry="945.721" transform="matrix(1 0 0 -1 232.544 427.965)" fill="#7DD8D2"
                         fill-opacity="0.05"/>
                <path d="M1636.9 427.965C1636.9 166.919 1479.75 -69.4423 1225.61 -240.554C971.472 -411.664 620.371 -517.506 232.544 -517.506C-155.283 -517.506 -506.383 -411.664 -760.519 -240.554C-1014.66 -69.4423 -1171.81 166.919 -1171.81 427.965C-1171.81 689.01 -1014.66 925.371 -760.519 1096.48C-506.383 1267.59 -155.283 1373.44 232.544 1373.44C620.371 1373.44 971.472 1267.59 1225.61 1096.48C1479.75 925.371 1636.9 689.01 1636.9 427.965Z"
                      stroke="#C77BD4" stroke-opacity="0.53" stroke-width="0.5"/>
            </g>
        </g>
        <path d="M-266 16.8003C-266 251.094 -66.319 441.027 180 441.027C426.319 441.027 574 540.493 574 306.2C574 71.9057 374.319 -118.027 128 -118.027C-118.319 -118.027 -266 -217.494 -266 16.8003Z"
              fill="#9C27B0" fill-opacity="0.37"/>
        <path d="M1066 978C1066 1212.29 1265.68 1402.23 1512 1402.23C1758.32 1402.23 1906 1501.69 1906 1267.4C1906 1033.11 2101.32 390.4 1855 390.4C1608.68 390.4 1066 743.706 1066 978Z"
              fill="#9C27B0" fill-opacity="0.25"/>
    </g>
    <defs>
        <filter id="filter0_d" x="-1176.06" y="-517.756" width="2817.2" height="1899.44" filterUnits="userSpaceOnUse"
                color-interpolation-filters="sRGB">
            <feFlood flood-opacity="0" result="BackgroundImageFix"/>
            <feColorMatrix in="SourceAlpha" type="matrix" values="0 0 0 0 0 0 0 0 0 0 0 0 0 0 0 0 0 0 127 0"/>
            <feOffset dy="4"/>
            <feGaussianBlur stdDeviation="2"/>
            <feColorMatrix type="matrix" values="0 0 0 0 0 0 0 0 0 0 0 0 0 0 0 0 0 0 0.02 0"/>
            <feBlend mode="normal" in2="BackgroundImageFix" result="effect1_dropShadow"/>
            <feBlend mode="normal" in="SourceGraphic" in2="effect1_dropShadow" result="shape"/>
        </filter>
        <linearGradient id="paint0_linear" x1="2377.5" y1="635.5" x2="-39.5" y2="642" gradientUnits="userSpaceOnUse">
            <stop stop-color="#E498FB"/>
            <stop offset="1" stop-color="#9C27B0"/>
        </linearGradient>
        <clipPath id="clip0">
            <rect width="1919" height="985" fill="white"/>
        </clipPath>
        <clipPath id="clip1">
            <path d="M-2 1030L1917 1030L1917 -139L-2 -139L-2 1030Z" fill="white"/>
        </clipPath>
    </defs>
</svg>
