<svg width="34" height="34" viewBox="0 0 34 34" fill="none" xmlns="http://www.w3.org/2000/svg">
<path fill-rule="evenodd" clip-rule="evenodd" d="M28.2333 29.75H29.144C30.15 29.75 30.9655 28.9346 30.9655 27.9286V8.03254C30.9621 6.95039 30.0853 6.07414 29.0032 6.07147H5.59418C4.51786 6.07481 3.64616 6.94651 3.64282 8.02283V27.789C3.64616 28.8711 4.52295 29.7474 5.60511 29.75H6.37618H28.2333Z" stroke="#1EA79D" stroke-width="2" stroke-linecap="round" stroke-linejoin="round"/>
<path fill-rule="evenodd" clip-rule="evenodd" d="M17.6071 23.9821L14.3953 25.6707L15.0087 22.0943L12.4103 19.5614L16.0012 19.0396L17.6071 15.7857L19.213 19.0396L22.804 19.5614L20.2055 22.0943L20.8189 25.6707L17.6071 23.9821Z" stroke="#1EA79D" stroke-width="2" stroke-linecap="round" stroke-linejoin="round"/>
<path d="M3.64282 12.1429H30.9643" stroke="#1EA79D" stroke-width="2" stroke-linecap="round" stroke-linejoin="round"/>
<path d="M24.2857 4.56396V7.6185" stroke="#1EA79D" stroke-width="2" stroke-linecap="round" stroke-linejoin="round"/>
<path d="M10.7389 4.56396V7.6185" stroke="#1EA79D" stroke-width="2" stroke-linecap="round" stroke-linejoin="round"/>
</svg>
