<svg width="34" height="34" viewBox="0 0 34 34" fill="none" xmlns="http://www.w3.org/2000/svg">
<path d="M7.55002 15.2681L7.47887 14.7732C7.23274 14.8086 7.05002 15.0194 7.05002 15.2681H7.55002ZM11.8645 11.0715V10.5715C11.6177 10.5715 11.4078 10.7516 11.3703 10.9956L11.8645 11.0715ZM7.55002 19.5414H7.05002C7.05002 19.7901 7.23276 20.0009 7.4789 20.0363L7.55002 19.5414ZM11.8646 23.738L11.3704 23.8139C11.4078 24.0579 11.6177 24.238 11.8646 24.238V23.738ZM22.1353 23.738V24.238C22.3821 24.238 22.592 24.0579 22.6295 23.8139L22.1353 23.738ZM26.4498 19.5414L26.5209 20.0363C26.7671 20.0009 26.9498 19.7901 26.9498 19.5414H26.4498ZM26.4498 15.2681H26.9498C26.9498 15.0194 26.7671 14.8086 26.521 14.7732L26.4498 15.2681ZM22.1353 11.0715L22.6295 10.9956C22.592 10.7516 22.3821 10.5715 22.1353 10.5715V11.0715ZM11.1716 9.07148C10.4812 9.07148 9.92155 9.63112 9.92155 10.3215H10.9216C10.9216 10.1834 11.0335 10.0715 11.1716 10.0715V9.07148ZM22.8283 9.07148H11.1716V10.0715H22.8283V9.07148ZM24.0783 10.3215C24.0783 9.63112 23.5186 9.07148 22.8283 9.07148V10.0715C22.9664 10.0715 23.0783 10.1834 23.0783 10.3215H24.0783ZM27.1998 13.3215C25.4436 13.3215 24.0783 11.9459 24.0783 10.3215H23.0783C23.0783 12.5229 24.9163 14.3215 27.1998 14.3215V13.3215ZM28.4498 14.5715C28.4498 13.8812 27.8902 13.3215 27.1998 13.3215V14.3215C27.3379 14.3215 27.4498 14.4335 27.4498 14.5715H28.4498ZM28.4498 20.238V14.5715H27.4498V20.238H28.4498ZM27.1998 21.488C27.8902 21.488 28.4498 20.9283 28.4498 20.238H27.4498C27.4498 20.376 27.3379 20.488 27.1998 20.488V21.488ZM24.0783 24.488C24.0783 22.8628 25.4434 21.488 27.1998 21.488V20.488C24.9163 20.488 23.0783 22.2856 23.0783 24.488H24.0783ZM22.8283 25.738C23.5186 25.738 24.0783 25.1784 24.0783 24.488H23.0783C23.0783 24.6261 22.9664 24.738 22.8283 24.738V25.738ZM11.1716 25.738H22.8283V24.738H11.1716V25.738ZM9.92155 24.488C9.92155 25.1784 10.4812 25.738 11.1716 25.738V24.738C11.0335 24.738 10.9216 24.6261 10.9216 24.488H9.92155ZM6.80002 21.488C8.55644 21.488 9.92155 22.8628 9.92155 24.488H10.9216C10.9216 22.2856 9.08354 20.488 6.80002 20.488V21.488ZM5.55002 20.238C5.55002 20.9283 6.10966 21.488 6.80002 21.488V20.488C6.66195 20.488 6.55002 20.376 6.55002 20.238H5.55002ZM5.55002 14.5715V20.238H6.55002V14.5715H5.55002ZM6.80002 13.3215C6.10966 13.3215 5.55002 13.8812 5.55002 14.5715H6.55002C6.55002 14.4335 6.66195 14.3215 6.80002 14.3215V13.3215ZM9.92155 10.3215C9.92155 11.9459 8.55625 13.3215 6.80002 13.3215V14.3215C9.0835 14.3215 10.9216 12.5229 10.9216 10.3215H9.92155ZM7.62116 15.763C10.0406 15.4152 11.9894 13.5517 12.3587 11.1474L11.3703 10.9956C11.0705 12.9473 9.48033 14.4855 7.47887 14.7732L7.62116 15.763ZM8.05002 19.5414V15.2681H7.05002V19.5414H8.05002ZM12.3588 23.6621C11.9895 21.257 10.0405 19.3941 7.62114 19.0465L7.4789 20.0363C9.48041 20.3239 11.0706 21.8616 11.3704 23.8139L12.3588 23.6621ZM22.1353 23.238H11.8646V24.238H22.1353V23.238ZM26.3787 19.0465C23.9593 19.3941 22.0103 21.257 21.6411 23.6621L22.6295 23.8139C22.9292 21.8616 24.5194 20.3239 26.5209 20.0363L26.3787 19.0465ZM25.9498 15.2681V19.5414H26.9498V15.2681H25.9498ZM21.6411 11.1474C22.0104 13.5517 23.9592 15.4152 26.3787 15.763L26.521 14.7732C24.5195 14.4855 22.9293 12.9473 22.6295 10.9956L21.6411 11.1474ZM11.8645 11.5715H22.1353V10.5715H11.8645V11.5715ZM17 13.3215C14.7342 13.3215 12.8353 15.1155 12.8353 17.4042H13.8353C13.8353 15.6961 15.2578 14.3215 17 14.3215V13.3215ZM21.1647 17.4042C21.1647 15.1155 19.2658 13.3215 17 13.3215V14.3215C18.7422 14.3215 20.1647 15.6961 20.1647 17.4042H21.1647ZM17 21.488C19.2664 21.488 21.1647 19.6924 21.1647 17.4042H20.1647C20.1647 19.1123 18.7423 20.488 17 20.488V21.488ZM12.8353 17.4042C12.8353 19.6924 14.7336 21.488 17 21.488V20.488C15.2577 20.488 13.8353 19.1123 13.8353 17.4042H12.8353ZM15.3353 17.4042C15.3353 16.5622 16.0481 15.8215 17 15.8215V14.8215C15.5199 14.8215 14.3353 15.9861 14.3353 17.4042H15.3353ZM17 18.988C16.0486 18.988 15.3353 18.2469 15.3353 17.4042H14.3353C14.3353 18.8225 15.52 19.988 17 19.988V18.988ZM18.6647 17.4042C18.6647 18.2469 17.9514 18.988 17 18.988V19.988C18.48 19.988 19.6647 18.8225 19.6647 17.4042H18.6647ZM17 15.8215C17.952 15.8215 18.6647 16.5622 18.6647 17.4042H19.6647C19.6647 15.9861 18.4802 14.8215 17 14.8215V15.8215ZM3.67859 8.90412C3.67859 8.06176 4.39162 7.32141 5.34226 7.32141V6.32141C3.86321 6.32141 2.67859 7.4859 2.67859 8.90412H3.67859ZM3.67859 25.9044V8.90412H2.67859V25.9044H3.67859ZM5.34226 27.4881C4.39217 27.4881 3.67859 26.7473 3.67859 25.9044H2.67859C2.67859 27.3227 3.86335 28.4881 5.34226 28.4881V27.4881ZM28.6567 27.4881H5.34226V28.4881H28.6567V27.4881ZM30.3214 25.9044C30.3214 26.747 29.6081 27.4881 28.6567 27.4881V28.4881C30.1368 28.4881 31.3214 27.3227 31.3214 25.9044H30.3214ZM30.3214 8.90412V25.9044H31.3214V8.90412H30.3214ZM28.6567 7.32141C29.6087 7.32141 30.3214 8.06203 30.3214 8.90412H31.3214C31.3214 7.48597 30.1369 6.32141 28.6567 6.32141V7.32141ZM5.34226 7.32141H28.6567V6.32141H5.34226V7.32141ZM5.34226 4.82141C3.07719 4.82141 1.17859 6.61569 1.17859 8.90412H2.17859C2.17859 7.19599 3.60104 5.82141 5.34226 5.82141V4.82141ZM28.6567 4.82141H5.34226V5.82141H28.6567V4.82141ZM32.8214 8.90412C32.8214 6.6154 30.9225 4.82141 28.6567 4.82141V5.82141C30.3989 5.82141 31.8214 7.19594 31.8214 8.90412H32.8214ZM32.8214 25.9044V8.90412H31.8214V25.9044H32.8214ZM28.6567 29.9881C30.9231 29.9881 32.8214 28.1925 32.8214 25.9044H31.8214C31.8214 27.6125 30.399 28.9881 28.6567 28.9881V29.9881ZM5.34226 29.9881H28.6567V28.9881H5.34226V29.9881ZM1.17859 25.9044C1.17859 28.1922 3.07659 29.9881 5.34226 29.9881V28.9881C3.60094 28.9881 2.17859 27.6124 2.17859 25.9044H1.17859ZM1.17859 8.90412V25.9044H2.17859V8.90412H1.17859Z" fill="#1EA79D"/>
</svg>
