<svg width="34" height="34" viewBox="0 0 34 34" fill="none" xmlns="http://www.w3.org/2000/svg">
<path fill-rule="evenodd" clip-rule="evenodd" d="M32.3509 11.544C33.2617 12.4548 33.1531 14.04 32.1085 15.0846L15.0846 32.1085C14.0399 33.1531 12.4547 33.2617 11.5439 32.3509L8.97793 29.7849L9.21198 29.0746C9.64413 27.763 9.38186 26.4058 8.48806 25.512C7.59426 24.6182 6.23703 24.3559 4.92546 24.7881L4.21511 25.0221L1.64913 22.4561C0.738341 21.5453 0.846872 19.9601 1.89154 18.9155L18.9154 1.89164C19.9601 0.846974 21.5453 0.738444 22.4561 1.64923L25.0221 4.21521L24.788 4.92555C24.3559 6.23711 24.6181 7.59435 25.5119 8.48814C26.4057 9.38194 27.763 9.64421 29.0745 9.21206L29.7849 8.97801L32.3509 11.544ZM14.7978 8.78685L12.7941 10.7905L2.77598 20.8086L4.51145 22.5441C6.56271 22.1088 8.59821 22.6236 9.98739 24.0128C11.3766 25.4019 11.8913 27.4374 11.4561 29.4887L13.1915 31.2241L23.2097 21.206L25.2133 19.2024L31.2242 13.1915L29.4888 11.456C27.4375 11.8913 25.402 11.3765 24.0128 9.98736C22.6236 8.59818 22.1089 6.56269 22.5441 4.51143L20.8087 2.77597L14.7978 8.78685ZM14.5798 13.6827L13.1927 15.0698L18.7477 20.6247L20.1348 19.2376L14.5798 13.6827ZM15.2729 12.9891L16.66 11.602L22.215 17.157L20.8278 18.5441L15.2729 12.9891ZM12.4987 15.7633L11.1116 17.1504L16.6665 22.7054L18.0537 21.3183L12.4987 15.7633Z" fill="#1EA79D"/>
</svg>
