<svg width="34" height="34" viewBox="0 0 34 34" fill="none" xmlns="http://www.w3.org/2000/svg">
<rect x="6.07141" y="12.4002" width="21.8571" height="14.5714" rx="2" stroke="#1EA79D" stroke-width="2" stroke-linecap="round" stroke-linejoin="round"/>
<path fill-rule="evenodd" clip-rule="evenodd" d="M24.6705 6.07144C25.6765 6.07144 26.492 5.16535 26.492 4.04763C26.492 2.92991 24.6705 1.21429 24.6705 1.21429C24.6705 1.21429 22.8491 2.92991 22.8491 4.04763C22.8491 5.16535 23.6646 6.07144 24.6705 6.07144Z" stroke="#1EA79D" stroke-width="2" stroke-linecap="round" stroke-linejoin="round"/>
<path d="M24.6705 9.33362V12.3693" stroke="#1EA79D" stroke-width="2" stroke-linecap="round" stroke-linejoin="round"/>
<path fill-rule="evenodd" clip-rule="evenodd" d="M9.47121 6.07144C10.4772 6.07144 11.2926 5.16535 11.2926 4.04763C11.2926 2.92991 9.47121 1.21429 9.47121 1.21429C9.47121 1.21429 7.64978 2.92991 7.64978 4.04763C7.64978 5.16535 8.46526 6.07144 9.47121 6.07144Z" stroke="#1EA79D" stroke-width="2" stroke-linecap="round" stroke-linejoin="round"/>
<path d="M9.47128 9.33362V12.3693" stroke="#1EA79D" stroke-width="2" stroke-linecap="round" stroke-linejoin="round"/>
<path fill-rule="evenodd" clip-rule="evenodd" d="M17.0709 6.07144C18.0769 6.07144 18.8924 5.16535 18.8924 4.04763C18.8924 2.92991 17.0709 1.21429 17.0709 1.21429C17.0709 1.21429 15.2495 2.92991 15.2495 4.04763C15.2495 5.16535 16.065 6.07144 17.0709 6.07144Z" stroke="#1EA79D" stroke-width="2" stroke-linecap="round" stroke-linejoin="round"/>
<path d="M17.0709 9.33362V12.3693" stroke="#1EA79D" stroke-width="2" stroke-linecap="round" stroke-linejoin="round"/>
<path d="M7.28577 19.6859C7.28577 19.6859 8.55045 20.9002 9.71434 20.9002C10.8782 20.9002 12.1429 19.6859 12.1429 19.6859C12.1429 19.6859 13.4746 20.9002 14.5715 20.9002C15.6684 20.9002 17.0001 19.6859 17.0001 19.6859C17.0001 19.6859 18.316 20.9002 19.4286 20.9002C20.5412 20.9002 21.8572 19.6859 21.8572 19.6859C21.8572 19.6859 23.185 20.9002 24.2858 20.9002C25.3865 20.9002 26.7143 19.6859 26.7143 19.6859" stroke="#1EA79D" stroke-width="2" stroke-linecap="round" stroke-linejoin="round"/>
<path d="M4.85718 31.2216H29.1429" stroke="#1EA79D" stroke-width="2" stroke-linecap="round" stroke-linejoin="round"/>
</svg>
