<svg width="34" height="34" viewBox="0 0 34 34" fill="none" xmlns="http://www.w3.org/2000/svg">
<path fill-rule="evenodd" clip-rule="evenodd" d="M16.8628 17.6663C19.0758 17.6663 20.8697 15.8723 20.8697 13.6594C20.8697 11.4464 19.0758 9.6524 16.8628 9.6524C14.6498 9.6524 12.8558 11.4464 12.8558 13.6594C12.8558 15.8723 14.6498 17.6663 16.8628 17.6663Z" stroke="#1EA79D" stroke-width="2" stroke-linecap="round" stroke-linejoin="round"/>
<path d="M22.6179 23.9406C21.8719 21.4693 19.5777 19.6698 16.8631 19.6698C14.882 19.6698 13.1248 20.6283 12.0298 22.1068C11.624 22.6548 11.3092 23.2742 11.1077 23.9427" stroke="#1EA79D" stroke-width="2" stroke-linecap="round" stroke-linejoin="round"/>
<path fill-rule="evenodd" clip-rule="evenodd" d="M27.5861 17.6663C29.4302 17.6663 30.9252 16.1713 30.9252 14.3272C30.9252 12.483 29.4302 10.988 27.5861 10.988C25.7419 10.988 24.2469 12.483 24.2469 14.3272C24.2469 16.1713 25.7419 17.6663 27.5861 17.6663Z" stroke="#1EA79D" stroke-width="2" stroke-linecap="round" stroke-linejoin="round"/>
<path d="M32.2228 21.1088C31.1728 20.2116 29.8099 19.6698 28.3204 19.6698C26.3393 19.6698 24.582 20.6283 23.4871 22.1068C23.0813 22.6548 22.7665 23.2742 22.5649 23.9427" stroke="#1EA79D" stroke-width="2" stroke-linecap="round" stroke-linejoin="round"/>
<path fill-rule="evenodd" clip-rule="evenodd" d="M6.07485 17.6663C7.919 17.6663 9.41398 16.1713 9.41398 14.3272C9.41398 12.483 7.919 10.988 6.07485 10.988C4.2307 10.988 2.73572 12.483 2.73572 14.3272C2.73572 16.1713 4.2307 17.6663 6.07485 17.6663Z" stroke="#1EA79D" stroke-width="2" stroke-linecap="round" stroke-linejoin="round"/>
<path d="M1.43817 21.1088C2.48823 20.2116 3.85115 19.6698 5.34061 19.6698C7.32172 19.6698 9.07897 20.6283 10.1739 22.1068C10.5797 22.6548 10.8945 23.2742 11.0961 23.9427" stroke="#1EA79D" stroke-width="2" stroke-linecap="round" stroke-linejoin="round"/>
</svg>
