<svg width="34" height="34" viewBox="0 0 34 34" fill="none" xmlns="http://www.w3.org/2000/svg">
<path fill-rule="evenodd" clip-rule="evenodd" d="M3 18C3 25.5015 9.15108 30.9036 16.7388 30.9036C24.3266 30.9036 30.4776 25.5015 30.4776 18H3Z" stroke="#1EA79D" stroke-width="2" stroke-linecap="round" stroke-linejoin="round"/>
<path d="M17.5639 14.1961C17.5639 10.8325 14.8058 8.10577 11.4035 8.10577C8.00125 8.10577 5.24316 10.8325 5.24316 14.1961" stroke="#1EA79D" stroke-width="2" stroke-linecap="round" stroke-linejoin="round"/>
<path d="M24.7456 14.0552C24.7456 11.439 22.6004 9.31824 19.9542 9.31824C19.06 9.31824 18.2231 9.56036 17.5068 9.98191" stroke="#1EA79D" stroke-width="2" stroke-linecap="round" stroke-linejoin="round"/>
<path d="M29.3183 13.9424C29.3183 8.71008 25.028 4.76477 19.7356 4.76477C16.902 4.76477 14.3557 5.68433 12.6013 7.61711" stroke="#1EA79D" stroke-width="2" stroke-linecap="round" stroke-linejoin="round"/>
<path d="M2.04883 2.43188L8.30901 8.71199" stroke="#1EA79D" stroke-width="2" stroke-linecap="round" stroke-linejoin="round"/>
<path d="M2 9.31824L5.81352 11.1873" stroke="#1EA79D" stroke-width="2" stroke-linecap="round" stroke-linejoin="round"/>
</svg>
