<svg width="34" height="34" viewBox="0 0 34 34" fill="none" xmlns="http://www.w3.org/2000/svg">
<rect x="10.3558" y="2.42859" width="13.3224" height="10.8245" stroke="#1EA79D" stroke-width="2" stroke-linecap="round" stroke-linejoin="round"/>
<rect x="10.3558" y="20.7469" width="13.3224" height="10.8245" stroke="#1EA79D" stroke-width="2" stroke-linecap="round" stroke-linejoin="round"/>
<path fill-rule="evenodd" clip-rule="evenodd" d="M6.98213 6.67861C7.4851 6.67861 7.89284 6.27087 7.89284 5.76789C7.89284 5.26492 7.4851 4.85718 6.98213 4.85718C6.47915 4.85718 6.07141 5.26492 6.07141 5.76789C6.07141 6.27087 6.47915 6.67861 6.98213 6.67861Z" fill="#1EA79D"/>
<path fill-rule="evenodd" clip-rule="evenodd" d="M6.98213 29.1429C7.4851 29.1429 7.89284 28.7352 7.89284 28.2322C7.89284 27.7292 7.4851 27.3215 6.98213 27.3215C6.47915 27.3215 6.07141 27.7292 6.07141 28.2322C6.07141 28.7352 6.47915 29.1429 6.98213 29.1429Z" fill="#1EA79D"/>
<path fill-rule="evenodd" clip-rule="evenodd" d="M6.98213 21.6547C7.4851 21.6547 7.89284 21.247 7.89284 20.744C7.89284 20.2411 7.4851 19.8333 6.98213 19.8333C6.47915 19.8333 6.07141 20.2411 6.07141 20.744C6.07141 21.247 6.47915 21.6547 6.98213 21.6547Z" fill="#1EA79D"/>
<path fill-rule="evenodd" clip-rule="evenodd" d="M6.98213 14.1667C7.4851 14.1667 7.89284 13.759 7.89284 13.256C7.89284 12.753 7.4851 12.3453 6.98213 12.3453C6.47915 12.3453 6.07141 12.753 6.07141 13.256C6.07141 13.759 6.47915 14.1667 6.98213 14.1667Z" fill="#1EA79D"/>
<path fill-rule="evenodd" clip-rule="evenodd" d="M26.9727 6.67861C27.4757 6.67861 27.8834 6.27087 27.8834 5.76789C27.8834 5.26492 27.4757 4.85718 26.9727 4.85718C26.4698 4.85718 26.062 5.26492 26.062 5.76789C26.062 6.27087 26.4698 6.67861 26.9727 6.67861Z" fill="#1EA79D"/>
<path fill-rule="evenodd" clip-rule="evenodd" d="M26.9727 29.1429C27.4757 29.1429 27.8834 28.7352 27.8834 28.2322C27.8834 27.7292 27.4757 27.3215 26.9727 27.3215C26.4698 27.3215 26.062 27.7292 26.062 28.2322C26.062 28.7352 26.4698 29.1429 26.9727 29.1429Z" fill="#1EA79D"/>
<path fill-rule="evenodd" clip-rule="evenodd" d="M26.9727 21.6547C27.4757 21.6547 27.8834 21.247 27.8834 20.744C27.8834 20.2411 27.4757 19.8333 26.9727 19.8333C26.4698 19.8333 26.062 20.2411 26.062 20.744C26.062 21.247 26.4698 21.6547 26.9727 21.6547Z" fill="#1EA79D"/>
<path fill-rule="evenodd" clip-rule="evenodd" d="M26.9727 14.1667C27.4757 14.1667 27.8834 13.759 27.8834 13.256C27.8834 12.753 27.4757 12.3453 26.9727 12.3453C26.4698 12.3453 26.062 12.753 26.062 13.256C26.062 13.759 26.4698 14.1667 26.9727 14.1667Z" fill="#1EA79D"/>
<path d="M30.3571 2.42859V31.5717" stroke="#1EA79D" stroke-width="2" stroke-linecap="round" stroke-linejoin="round"/>
<path d="M3.65304 2.42859V31.5491" stroke="#1EA79D" stroke-width="2" stroke-linecap="round" stroke-linejoin="round"/>
</svg>
