<svg width="34" height="34" viewBox="0 0 34 34" fill="none" xmlns="http://www.w3.org/2000/svg">
<path fill-rule="evenodd" clip-rule="evenodd" d="M28.9181 29.9186C30.3204 29.9186 31.4572 28.7644 31.4572 27.3405C31.4572 25.9167 30.3204 24.7624 28.9181 24.7624C27.5158 24.7624 26.379 25.9167 26.379 27.3405C26.379 28.7644 27.5158 29.9186 28.9181 29.9186Z" stroke="#1EA79D" stroke-width="2" stroke-linecap="round" stroke-linejoin="round"/>
<path fill-rule="evenodd" clip-rule="evenodd" d="M19.3986 32.4968C20.8008 32.4968 21.9376 31.3425 21.9376 29.9186C21.9376 28.4948 20.8008 27.3405 19.3986 27.3405C17.9963 27.3405 16.8595 28.4948 16.8595 29.9186C16.8595 31.3425 17.9963 32.4968 19.3986 32.4968Z" stroke="#1EA79D" stroke-width="2" stroke-linecap="round" stroke-linejoin="round"/>
<path d="M31.4061 27.5605V16.7324L21.7577 19.3105V29.1387" stroke="#1EA79D" stroke-width="2" stroke-linecap="round" stroke-linejoin="round"/>
<path fill-rule="evenodd" clip-rule="evenodd" d="M8.96648 12.5299C11.9464 13.3407 15.0094 11.5451 15.8078 8.51931C16.6063 5.49356 14.8379 2.38346 11.858 1.57271C8.87807 0.761961 5.81509 2.55758 5.01663 5.58333C4.21817 8.60908 5.98658 11.7192 8.96648 12.5299Z" stroke="#1EA79D" stroke-width="2" stroke-linecap="round" stroke-linejoin="round"/>
<path d="M13.2483 12.234L7.54768 26.6255C7.21051 27.4767 6.19226 27.9156 5.18814 27.6425L4.79674 27.5361C3.79262 27.263 3.12671 26.3661 3.25366 25.4577L5.3999 10.0996" stroke="#1EA79D" stroke-width="2" stroke-linecap="round" stroke-linejoin="round"/>
<path d="M4.99244 27.5893L4.30628 30.1895" stroke="#1EA79D" stroke-width="2" stroke-linecap="round" stroke-linejoin="round"/>
<path d="M3.96476 5.29715L16.8598 8.80552" stroke="#1EA79D" stroke-width="2" stroke-linecap="round" stroke-linejoin="round"/>
</svg>
