<svg width="34" height="34" viewBox="0 0 34 34" fill="none" xmlns="http://www.w3.org/2000/svg">
<rect x="5.46155" y="9.54962" width="8.07692" height="12.76" rx="4.03846" stroke="#1EA79D" stroke-width="2" stroke-linecap="round" stroke-linejoin="round"/>
<path d="M5.46155 14.6432H9.49495" stroke="#1EA79D" stroke-width="2" stroke-linecap="round" stroke-linejoin="round"/>
<path d="M5.46155 18.1232H9.49495" stroke="#1EA79D" stroke-width="2" stroke-linecap="round" stroke-linejoin="round"/>
<path d="M2 17.082C2 16.0214 2 14.6706 2 13.0296C2 9.18574 5.09957 6.06964 8.92308 6.06964H10.0769C12.239 6.06964 14.1696 7.06602 15.4391 8.62696" stroke="#1EA79D" stroke-width="2" stroke-linecap="round" stroke-linejoin="round"/>
<path fill-rule="evenodd" clip-rule="evenodd" d="M24.3181 21.4715C27.3181 21.4715 29.7501 19.0266 29.7501 16.0106C29.7501 12.9946 27.3181 10.5496 24.3181 10.5496C21.3181 10.5496 18.8861 12.9946 18.8861 16.0106C18.8861 19.0266 21.3181 21.4715 24.3181 21.4715Z" stroke="#1EA79D" stroke-width="2" stroke-linecap="round" stroke-linejoin="round"/>
<path d="M21.764 11.4849C22.335 13.8862 24.4838 15.6715 27.0473 15.6715C27.818 15.6715 28.5512 15.5102 29.2153 15.2192" stroke="#1EA79D" stroke-width="2" stroke-linecap="round" stroke-linejoin="round"/>
<path d="M32 31.4296C32 26.9451 28.3839 23.3096 23.9231 23.3096C19.4624 23.3096 15.8462 26.9451 15.8462 31.4296" stroke="#1EA79D" stroke-width="2" stroke-linecap="round" stroke-linejoin="round"/>
<path d="M9.50002 2V6.06963" stroke="#1EA79D" stroke-width="2" stroke-linecap="round" stroke-linejoin="round"/>
</svg>
