<svg width="34" height="34" viewBox="0 0 34 34" fill="none" xmlns="http://www.w3.org/2000/svg">
<path fill-rule="evenodd" clip-rule="evenodd" d="M26.2726 28.7013C29.199 28.7013 31.5713 26.329 31.5713 23.4026C31.5713 20.4762 29.199 18.1039 26.2726 18.1039C23.3462 18.1039 20.9739 20.4762 20.9739 23.4026C20.9739 26.329 23.3462 28.7013 26.2726 28.7013Z" stroke="#1EA79D" stroke-width="2" stroke-linecap="round" stroke-linejoin="round"/>
<path fill-rule="evenodd" clip-rule="evenodd" d="M7.72717 28.7013C10.6536 28.7013 13.0259 26.329 13.0259 23.4026C13.0259 20.4762 10.6536 18.1039 7.72717 18.1039C4.80078 18.1039 2.42847 20.4762 2.42847 23.4026C2.42847 26.329 4.80078 28.7013 7.72717 28.7013Z" stroke="#1EA79D" stroke-width="2" stroke-linecap="round" stroke-linejoin="round"/>
<path d="M15.6753 5.19153L21.255 5.19153L26.2727 23.4026" stroke="#1EA79D" stroke-width="2" stroke-linecap="round" stroke-linejoin="round"/>
<path d="M6.40259 10.1558L10.6753 10.1558L14.1592 15.061" stroke="#1EA79D" stroke-width="2" stroke-linecap="round" stroke-linejoin="round"/>
<path d="M7.72729 23.4026L23.2922 13.1364" stroke="#1EA79D" stroke-width="2" stroke-linecap="round" stroke-linejoin="round"/>
</svg>
