<svg width="34" height="34" viewBox="0 0 34 34" fill="none" xmlns="http://www.w3.org/2000/svg">
<path fill-rule="evenodd" clip-rule="evenodd" d="M27.6658 6.21581L8.48416 12.7227L5.91537 10.1456L2.10321 11.4374C1.58716 11.6124 1.19284 12.0375 1.05375 12.5687C0.914664 13.0998 1.04944 13.666 1.41245 14.0754L6.56296 19.8983C7.42699 20.8765 8.78657 21.2393 10.0168 20.8197L15.666 18.9027L14.5219 27.1392C14.4439 27.7001 14.6593 28.2617 15.0912 28.6234C15.5231 28.9851 16.1098 29.0953 16.6417 28.9146L19.5774 27.9191C20.0333 27.7647 20.3973 27.4134 20.5704 26.9606L24.8747 15.7811L30.2454 13.9578C32.3639 13.2359 33.5015 10.9177 32.7861 8.77978C32.0708 6.64188 29.7736 5.49396 27.6551 6.21581H27.6658Z" stroke="#1EA79D" stroke-width="2" stroke-linecap="round" stroke-linejoin="round"/>
</svg>
