<svg width="330" height="330" viewBox="0 0 330 330" fill="none" xmlns="http://www.w3.org/2000/svg">
    <path fill-rule="evenodd" clip-rule="evenodd"
          d="M170.442 313.326C252.51 313.326 319.038 246.797 319.038 164.73C319.038 82.6622 252.51 16.1333 170.442 16.1333C88.3744 16.1333 21.8455 82.6622 21.8455 164.73C21.8455 246.797 88.3744 313.326 170.442 313.326Z"
          fill="#116F73"/>
    <path fill-rule="evenodd" clip-rule="evenodd"
          d="M179.734 131.898C146.34 98.3166 109.722 80.694 97.9429 92.5363C96.6504 93.8979 95.6993 95.5494 95.1683 97.3546L94.9787 97.164L83.7294 143.528L72.5274 189.753L59.2488 244.489L50.843 279.153L100.61 260.213L163.91 236.126L214.409 216.909L214.349 216.848C216.039 216.306 217.586 215.386 218.872 214.157C230.652 202.31 213.129 165.484 179.734 131.898Z"
          fill="#9C27B0"/>
    <path fill-rule="evenodd" clip-rule="evenodd"
          d="M179.734 131.884C146.341 98.2997 109.722 80.6765 97.9444 92.5216C86.1667 104.367 103.69 141.195 137.083 174.779C170.477 208.363 207.095 225.987 218.873 214.142C230.651 202.296 213.128 165.469 179.734 131.884Z"
          fill="#4F1361"/>
    <path fill-rule="evenodd" clip-rule="evenodd"
          d="M209.825 218.408C203.795 218.514 197.813 217.32 192.281 214.907L151.006 230.614L87.6845 254.68L53.7297 267.601L50.843 279.504L100.61 260.564L163.91 236.477L210.255 218.841L209.825 218.408Z"
          fill="#681A7F"/>
    <path fill-rule="evenodd" clip-rule="evenodd"
          d="M261.957 184.176C261.441 184.174 260.929 184.082 260.445 183.903C238.572 175.662 214.929 173.352 191.889 177.204L176.499 179.782C174.143 180.12 171.961 178.474 171.625 176.105C171.3 173.816 172.819 171.674 175.077 171.238L190.471 168.638C215.005 164.538 240.178 166.997 263.469 175.766C265.709 176.575 266.871 179.057 266.067 181.309C265.445 183.048 263.795 184.2 261.957 184.176Z"
          fill="url(#paint0_linear)"/>
    <path fill-rule="evenodd" clip-rule="evenodd"
          d="M184.405 158.178C182.025 158.163 180.108 156.212 180.122 153.819C180.131 152.167 181.074 150.665 182.552 149.945L273.029 106.614C275.178 105.585 277.749 106.502 278.773 108.663C279.796 110.825 278.884 113.41 276.735 114.439L186.257 157.77C185.678 158.043 185.045 158.182 184.405 158.178Z"
          fill="url(#paint1_linear)"/>
    <path fill-rule="evenodd" clip-rule="evenodd"
          d="M134.022 149.512C133.454 149.513 132.891 149.4 132.367 149.178C130.171 148.257 129.133 145.72 130.05 143.511V143.51L136.314 128.392C145.953 105.229 148.2 79.6272 142.746 55.1242C142.187 52.7979 143.61 50.4569 145.922 49.8947C148.235 49.3325 150.563 50.7629 151.122 53.0887C151.134 53.1402 151.146 53.1916 151.157 53.2436C156.999 79.4918 154.59 106.917 144.263 131.729L137.994 146.847C137.325 148.459 135.759 149.51 134.022 149.512Z"
          fill="url(#paint2_linear)"/>
    <path fill-rule="evenodd" clip-rule="evenodd"
          d="M283.499 201.509C288.258 201.509 292.116 197.629 292.116 192.842C292.116 188.056 288.258 184.176 283.499 184.176C278.74 184.176 274.882 188.056 274.882 192.842C274.882 197.629 278.74 201.509 283.499 201.509Z"
          fill="#9C27B0"/>
    <path fill-rule="evenodd" clip-rule="evenodd"
          d="M180.096 80.1824C184.855 80.1824 188.713 76.3024 188.713 71.5163C188.713 66.7301 184.855 62.8501 180.096 62.8501C175.337 62.8501 171.479 66.7301 171.479 71.5163C171.479 76.3024 175.337 80.1824 180.096 80.1824Z"
          fill="#DD95C1"/>
    <path fill-rule="evenodd" clip-rule="evenodd"
          d="M141.321 41.1849C136.561 41.1849 132.704 37.3051 132.704 32.5187C132.704 27.7323 136.561 23.8525 141.321 23.8525C146.08 23.8525 149.937 27.7323 149.937 32.5187C149.937 37.3051 146.08 41.1849 141.321 41.1849Z"
          fill="url(#paint3_linear)"/>
    <path fill-rule="evenodd" clip-rule="evenodd"
          d="M261.957 58.5173C259.578 58.5173 257.648 56.5772 257.648 54.1842V49.8511C257.648 47.4582 259.578 45.5181 261.957 45.5181C264.336 45.5181 266.265 47.4582 266.265 49.8511V54.1842C266.265 56.5772 264.337 58.5173 261.957 58.5173Z"
          fill="url(#paint4_linear)"/>
    <path fill-rule="evenodd" clip-rule="evenodd"
          d="M261.957 36.8518C259.578 36.8518 257.648 34.9116 257.648 32.5187V28.1856C257.648 25.7927 259.578 23.8525 261.957 23.8525C264.336 23.8525 266.265 25.7927 266.265 28.1856V32.5187C266.265 34.9116 264.337 36.8518 261.957 36.8518Z"
          fill="url(#paint5_linear)"/>
    <path fill-rule="evenodd" clip-rule="evenodd"
          d="M274.882 45.5177H270.574C268.194 45.5177 266.265 43.5776 266.265 41.1846C266.265 38.7917 268.194 36.8516 270.574 36.8516H274.882C277.262 36.8516 279.191 38.7917 279.191 41.1846C279.191 43.5776 277.262 45.5177 274.882 45.5177Z"
          fill="url(#paint6_linear)"/>
    <path fill-rule="evenodd" clip-rule="evenodd"
          d="M253.34 45.5177H249.032C246.652 45.5177 244.723 43.5776 244.723 41.1846C244.723 38.7917 246.652 36.8516 249.032 36.8516H253.34C255.719 36.8516 257.648 38.7917 257.648 41.1846C257.648 43.5776 255.72 45.5177 253.34 45.5177Z"
          fill="url(#paint7_linear)"/>
    <path fill-rule="evenodd" clip-rule="evenodd"
          d="M85.0434 149.512C84.5608 147.657 84.13 145.785 83.7293 143.879L72.5273 190.104L73.389 200.673C75.267 223.204 84.891 244.373 100.605 260.543L163.909 236.477C163.565 236.368 163.207 236.29 162.863 236.173C124.477 221.698 95.4634 189.388 85.0434 149.512Z"
          fill="white"/>
    <path fill-rule="evenodd" clip-rule="evenodd"
          d="M163.909 236.477C163.565 236.369 163.207 236.291 162.863 236.174C158.716 234.595 154.654 232.797 150.695 230.788L93.6775 252.483C95.8393 255.303 98.1534 258.001 100.61 260.565L163.909 236.477Z"
          fill="#F6F6E7"/>
    <path fill-rule="evenodd" clip-rule="evenodd" d="M231.798 75.7583V97.5147H210.165V75.7583H231.798Z" fill="#1EA79D"/>
    <path fill-rule="evenodd" clip-rule="evenodd"
          d="M154.246 153.845C151.867 153.844 149.938 151.904 149.938 149.511C149.939 148.283 150.457 147.114 151.363 146.292L194.448 107.295C196.247 105.729 198.968 105.927 200.525 107.736C202.039 109.495 201.901 112.143 200.213 113.734L157.128 152.731C156.338 153.448 155.311 153.844 154.246 153.845Z"
          fill="url(#paint8_linear)"/>
    <path fill-rule="evenodd" clip-rule="evenodd"
          d="M279.191 136.512C276.811 136.512 274.882 134.572 274.882 132.179V127.846C274.882 125.453 276.811 123.513 279.191 123.513C281.57 123.513 283.499 125.453 283.499 127.846V132.179C283.499 134.572 281.571 136.512 279.191 136.512Z"
          fill="url(#paint9_linear)"/>
    <path fill-rule="evenodd" clip-rule="evenodd"
          d="M294.425 130.165C293.282 130.168 292.185 129.711 291.379 128.895L288.333 125.831C286.68 124.11 286.727 121.367 288.439 119.705C290.108 118.083 292.755 118.083 294.425 119.705L297.471 122.768C299.154 124.461 299.153 127.204 297.47 128.896C296.663 129.708 295.567 130.165 294.425 130.165Z"
          fill="url(#paint10_linear)"/>
    <path fill-rule="evenodd" clip-rule="evenodd"
          d="M300.733 114.847H296.424C294.045 114.847 292.116 112.907 292.116 110.514C292.116 108.121 294.045 106.181 296.424 106.181H300.733C303.112 106.181 305.041 108.121 305.041 110.514C305.041 112.907 303.113 114.847 300.733 114.847Z"
          fill="url(#paint11_linear)"/>
    <path fill-rule="evenodd" clip-rule="evenodd"
          d="M291.379 102.593C289 102.593 287.071 100.652 287.072 98.259C287.072 97.1102 287.526 96.0085 288.333 95.1966L291.379 92.1331C293.091 90.4703 295.818 90.518 297.471 92.2393C299.084 93.9184 299.084 96.5805 297.471 98.2601L294.425 101.324C293.617 102.136 292.522 102.593 291.379 102.593Z"
          fill="url(#paint12_linear)"/>
    <path fill-rule="evenodd" clip-rule="evenodd"
          d="M279.191 97.5149C276.811 97.5149 274.882 95.5747 274.882 93.1818V88.8487C274.882 86.4558 276.811 84.5156 279.191 84.5156C281.57 84.5156 283.499 86.4558 283.499 88.8487V93.1818C283.499 95.5747 281.571 97.5149 279.191 97.5149Z"
          fill="url(#paint13_linear)"/>
    <path fill-rule="evenodd" clip-rule="evenodd"
          d="M267.002 102.593C265.859 102.593 264.764 102.136 263.956 101.324L260.91 98.2602C259.257 96.5389 259.304 93.7955 261.016 92.1332C262.685 90.5116 265.332 90.5116 267.002 92.1332L270.048 95.1967C271.731 96.8893 271.73 99.6327 270.047 101.325C269.24 102.137 268.144 102.593 267.002 102.593Z"
          fill="url(#paint14_linear)"/>
    <path fill-rule="evenodd" clip-rule="evenodd"
          d="M72.3852 28.1855L79.0418 41.7524L93.9275 43.9276L83.1564 54.4873L85.6983 69.3974L72.3852 62.3562L59.0721 69.3974L61.6141 54.4873L50.843 43.9276L65.7287 41.7524L72.3852 28.1855Z"
          fill="url(#paint15_linear)"/>
    <path fill-rule="evenodd" clip-rule="evenodd"
          d="M303.68 258.558C301.631 251.254 296.912 245 290.47 241.048L288.695 238.37C278.742 223.401 263.091 213.223 245.434 210.235C243.078 209.897 240.896 211.544 240.56 213.913C240.235 216.202 241.755 218.344 244.012 218.78C256.748 220.954 268.354 227.462 276.89 237.213C269.714 238.511 263.437 242.846 259.656 249.116C255.016 257.474 257.991 268.032 266.302 272.699C274.612 277.366 285.11 274.373 289.751 266.015C291.523 262.574 292.48 258.767 292.547 254.892C297.131 261.588 297.498 270.333 293.49 277.394C292.276 279.452 292.951 282.11 294.998 283.331C297.044 284.552 299.688 283.873 300.901 281.815C300.94 281.749 300.977 281.682 301.013 281.614C304.927 274.595 305.887 266.293 303.68 258.558ZM282.237 261.786C279.937 265.977 274.695 267.499 270.529 265.186C266.362 262.873 264.849 257.601 267.148 253.411C267.161 253.388 267.174 253.364 267.187 253.341C269.73 249.154 274.018 246.347 278.854 245.706C279.604 245.685 280.345 245.859 281.009 246.209C284.645 248.25 284.839 257.098 282.237 261.786Z"
          fill="url(#paint16_linear)"/>
    <path d="M22.0236 143.832L14.4202 124.015L39.8354 125.623L31.8864 104.905" stroke="#FFD002" stroke-width="3.84"
          stroke-linecap="round" stroke-linejoin="round"/>
    <defs>
        <linearGradient id="paint0_linear" x1="172.835" y1="167.17" x2="172.835" y2="184.176"
                        gradientUnits="userSpaceOnUse">
            <stop stop-color="#FFD92E"/>
            <stop offset="1" stop-color="#FFD002"/>
        </linearGradient>
        <linearGradient id="paint1_linear" x1="181.432" y1="107.568" x2="181.432" y2="158.178"
                        gradientUnits="userSpaceOnUse">
            <stop stop-color="#FFD92E"/>
            <stop offset="1" stop-color="#FFD002"/>
        </linearGradient>
        <linearGradient id="paint2_linear" x1="130.041" y1="52.4119" x2="130.041" y2="149.512"
                        gradientUnits="userSpaceOnUse">
            <stop stop-color="#FFD92E"/>
            <stop offset="1" stop-color="#FFD002"/>
        </linearGradient>
        <linearGradient id="paint3_linear" x1="132.871" y1="23.8525" x2="132.871" y2="40.8479"
                        gradientUnits="userSpaceOnUse">
            <stop stop-color="#2AD9CD"/>
            <stop offset="1" stop-color="#34C6BD"/>
        </linearGradient>
        <linearGradient id="paint4_linear" x1="257.732" y1="45.5181" x2="257.732" y2="58.2646"
                        gradientUnits="userSpaceOnUse">
            <stop stop-color="#2AD9CD"/>
            <stop offset="1" stop-color="#34C6BD"/>
        </linearGradient>
        <linearGradient id="paint5_linear" x1="257.732" y1="23.8525" x2="257.732" y2="36.5991"
                        gradientUnits="userSpaceOnUse">
            <stop stop-color="#2AD9CD"/>
            <stop offset="1" stop-color="#34C6BD"/>
        </linearGradient>
        <linearGradient id="paint6_linear" x1="266.391" y1="36.8516" x2="266.391" y2="45.3492"
                        gradientUnits="userSpaceOnUse">
            <stop stop-color="#2AD9CD"/>
            <stop offset="1" stop-color="#34C6BD"/>
        </linearGradient>
        <linearGradient id="paint7_linear" x1="244.849" y1="36.8516" x2="244.849" y2="45.3492"
                        gradientUnits="userSpaceOnUse">
            <stop stop-color="#2AD9CD"/>
            <stop offset="1" stop-color="#34C6BD"/>
        </linearGradient>
        <linearGradient id="paint8_linear" x1="150.622" y1="107.498" x2="150.622" y2="153.845"
                        gradientUnits="userSpaceOnUse">
            <stop stop-color="#FFD92E"/>
            <stop offset="1" stop-color="#FFD002"/>
        </linearGradient>
        <linearGradient id="paint9_linear" x1="274.996" y1="123.857" x2="274.996" y2="136.512"
                        gradientUnits="userSpaceOnUse">
            <stop stop-color="#FFD92E"/>
            <stop offset="1" stop-color="#FFD002"/>
        </linearGradient>
        <linearGradient id="paint10_linear" x1="287.277" y1="118.797" x2="287.277" y2="130.165"
                        gradientUnits="userSpaceOnUse">
            <stop stop-color="#FFD92E"/>
            <stop offset="1" stop-color="#FFD002"/>
        </linearGradient>
        <linearGradient id="paint11_linear" x1="292.287" y1="106.41" x2="292.287" y2="114.847"
                        gradientUnits="userSpaceOnUse">
            <stop stop-color="#FFD92E"/>
            <stop offset="1" stop-color="#FFD002"/>
        </linearGradient>
        <linearGradient id="paint12_linear" x1="287.225" y1="91.2255" x2="287.225" y2="102.593"
                        gradientUnits="userSpaceOnUse">
            <stop stop-color="#FFD92E"/>
            <stop offset="1" stop-color="#FFD002"/>
        </linearGradient>
        <linearGradient id="paint13_linear" x1="274.996" y1="84.8596" x2="274.996" y2="97.5149"
                        gradientUnits="userSpaceOnUse">
            <stop stop-color="#FFD92E"/>
            <stop offset="1" stop-color="#FFD002"/>
        </linearGradient>
        <linearGradient id="paint14_linear" x1="259.854" y1="91.226" x2="259.854" y2="102.593"
                        gradientUnits="userSpaceOnUse">
            <stop stop-color="#FFD92E"/>
            <stop offset="1" stop-color="#FFD002"/>
        </linearGradient>
        <linearGradient id="paint15_linear" x1="51.4131" y1="29.2761" x2="51.4131" y2="69.3975"
                        gradientUnits="userSpaceOnUse">
            <stop stop-color="#FFD92E"/>
            <stop offset="1" stop-color="#FFD002"/>
        </linearGradient>
        <linearGradient id="paint16_linear" x1="241.142" y1="210.191" x2="241.142" y2="282.504"
                        gradientUnits="userSpaceOnUse">
            <stop stop-color="#2AD9CD"/>
            <stop offset="1" stop-color="#34C6BD"/>
        </linearGradient>
    </defs>
</svg>
