<svg width="330" height="330" viewBox="0 0 330 330" fill="none" xmlns="http://www.w3.org/2000/svg">
    <rect x="43.3545" y="45.1357" width="274.123" height="199.39" rx="7.23492" fill="#1EA79D"/>
    <rect x="48.9951" y="38.2202" width="274.123" height="199.39" rx="7.23492" fill="url(#paint0_linear)"/>
    <path opacity="0.65718" fill-rule="evenodd" clip-rule="evenodd"
          d="M323.118 82.0168H48.9951V51.2178C48.9951 47.2221 52.2343 43.9829 56.23 43.9829H315.883C319.879 43.9829 323.118 47.2221 323.118 51.2178V82.0168Z"
          fill="#1EA79D"/>
    <path fill-rule="evenodd" clip-rule="evenodd"
          d="M323.118 76.2541H48.9951V45.4551C48.9951 41.4594 52.2343 38.2202 56.23 38.2202H315.883C319.879 38.2202 323.118 41.4594 323.118 45.4551V76.2541Z"
          fill="url(#paint1_linear)"/>
    <rect x="265.585" y="29" width="13.5369" height="29.9661" rx="2.99376" fill="url(#paint2_linear)"/>
    <rect x="95.2461" y="29" width="13.5369" height="29.9661" rx="2.99376" fill="url(#paint3_linear)"/>
    <path opacity="0.647205" fill-rule="evenodd" clip-rule="evenodd"
          d="M284.199 171.915C291.364 171.915 297.172 165.981 297.172 158.661C297.172 151.341 291.364 145.407 284.199 145.407C277.034 145.407 271.226 151.341 271.226 158.661C271.226 165.981 277.034 171.915 284.199 171.915Z"
          fill="#F5F5F5" fill-opacity="0.504642"/>
    <path opacity="0.647205" fill-rule="evenodd" clip-rule="evenodd"
          d="M95.8103 171.915C102.975 171.915 108.783 165.981 108.783 158.661C108.783 151.341 102.975 145.407 95.8103 145.407C88.6456 145.407 82.8374 151.341 82.8374 158.661C82.8374 165.981 88.6456 171.915 95.8103 171.915Z"
          fill="#F5F5F5" fill-opacity="0.504642"/>
    <path opacity="0.647205" fill-rule="evenodd" clip-rule="evenodd"
          d="M142.061 171.915C149.226 171.915 155.034 165.981 155.034 158.661C155.034 151.341 149.226 145.407 142.061 145.407C134.897 145.407 129.088 151.341 129.088 158.661C129.088 165.981 134.897 171.915 142.061 171.915Z"
          fill="#F5F5F5" fill-opacity="0.504642"/>
    <path opacity="0.647205" fill-rule="evenodd" clip-rule="evenodd"
          d="M190.569 171.915C197.733 171.915 203.541 165.981 203.541 158.661C203.541 151.341 197.733 145.407 190.569 145.407C183.404 145.407 177.596 151.341 177.596 158.661C177.596 165.981 183.404 171.915 190.569 171.915Z"
          fill="#F5F5F5" fill-opacity="0.504642"/>
    <path opacity="0.647205" fill-rule="evenodd" clip-rule="evenodd"
          d="M236.82 171.915C243.984 171.915 249.792 165.981 249.792 158.661C249.792 151.341 243.984 145.407 236.82 145.407C229.655 145.407 223.847 151.341 223.847 158.661C223.847 165.981 229.655 171.915 236.82 171.915Z"
          fill="#F5F5F5" fill-opacity="0.504642"/>
    <path opacity="0.647205" fill-rule="evenodd" clip-rule="evenodd"
          d="M189.441 128.119C196.605 128.119 202.414 122.185 202.414 114.865C202.414 107.544 196.605 101.61 189.441 101.61C182.276 101.61 176.468 107.544 176.468 114.865C176.468 122.185 182.276 128.119 189.441 128.119Z"
          fill="#F5F5F5" fill-opacity="0.504642"/>
    <path opacity="0.647205" fill-rule="evenodd" clip-rule="evenodd"
          d="M236.82 128.119C243.984 128.119 249.792 122.185 249.792 114.865C249.792 107.544 243.984 101.61 236.82 101.61C229.655 101.61 223.847 107.544 223.847 114.865C223.847 122.185 229.655 128.119 236.82 128.119Z"
          fill="#F5F5F5" fill-opacity="0.504642"/>
    <path opacity="0.647205" fill-rule="evenodd" clip-rule="evenodd"
          d="M284.199 128.119C291.364 128.119 297.172 122.185 297.172 114.865C297.172 107.544 291.364 101.61 284.199 101.61C277.034 101.61 271.226 107.544 271.226 114.865C271.226 122.185 277.034 128.119 284.199 128.119Z"
          fill="#F5F5F5" fill-opacity="0.504642"/>
    <path opacity="0.647205" fill-rule="evenodd" clip-rule="evenodd"
          d="M95.8103 218.017C102.975 218.017 108.783 212.083 108.783 204.763C108.783 197.442 102.975 191.508 95.8103 191.508C88.6456 191.508 82.8374 197.442 82.8374 204.763C82.8374 212.083 88.6456 218.017 95.8103 218.017Z"
          fill="#F5F5F5" fill-opacity="0.504642"/>
    <path opacity="0.647205" fill-rule="evenodd" clip-rule="evenodd"
          d="M142.061 216.864C149.226 216.864 155.034 210.93 155.034 203.61C155.034 196.29 149.226 190.356 142.061 190.356C134.897 190.356 129.088 196.29 129.088 203.61C129.088 210.93 134.897 216.864 142.061 216.864Z"
          fill="#F5F5F5" fill-opacity="0.504642"/>
    <path opacity="0.647205" fill-rule="evenodd" clip-rule="evenodd"
          d="M190.569 216.864C197.733 216.864 203.541 210.93 203.541 203.61C203.541 196.29 197.733 190.356 190.569 190.356C183.404 190.356 177.596 196.29 177.596 203.61C177.596 210.93 183.404 216.864 190.569 216.864Z"
          fill="#F5F5F5" fill-opacity="0.504642"/>
    <path fill-rule="evenodd" clip-rule="evenodd"
          d="M136.248 127.987C162.343 127.987 183.498 106.367 183.498 79.6982C183.498 53.0292 162.343 31.4097 136.248 31.4097C110.152 31.4097 88.9971 53.0292 88.9971 79.6982C88.9971 106.367 110.152 127.987 136.248 127.987Z"
          fill="url(#paint4_linear)"/>
    <path fill-rule="evenodd" clip-rule="evenodd"
          d="M135.839 95.9579L119.755 103.138L121.464 85.2804L109.814 71.8604L126.955 68.0039L135.839 52.5298L144.723 68.0039L161.864 71.8604L150.214 85.2804L151.923 103.138L135.839 95.9579Z"
          fill="url(#paint5_linear)"/>
    <path fill-rule="evenodd" clip-rule="evenodd"
          d="M78.6728 165.863C78.6728 165.863 96.4878 169.219 110.083 161.07C114.369 158.501 118.515 155.217 122.184 151.429C130.153 143.201 135.868 132.593 135.868 121.761C135.868 120.598 135.291 121.107 135.131 121.02C134.778 120.828 134.646 121.43 134.405 121.005C133.763 119.872 131.649 127.514 131.649 127.514H129.305C129.305 127.514 122.273 158.673 81.9545 153.4C67.8753 151.558 77.748 158.533 77.8181 160.9C77.8818 163.052 78.6728 165.863 78.6728 165.863Z"
          fill="url(#paint6_linear)"/>
    <path fill-rule="evenodd" clip-rule="evenodd"
          d="M55.7539 221.199L72.1624 246.126C72.1624 246.126 67.9431 256.672 69.8184 266.739C71.6936 276.806 74.9753 287.352 74.9753 287.352L75.913 292.625H80.6011V287.352C80.6011 287.352 82.4764 263.383 82.4764 259.548C82.4764 255.713 82.0076 242.77 80.6011 234.621C79.1947 226.472 76.0689 194.966 76.0689 194.966L38.8766 192.916L29.5003 247.564C29.5003 247.564 23.4057 252.837 18.2487 264.342C13.0917 275.847 13.5606 287.352 13.5606 287.352V291.666L17.3111 292.625L19.1863 288.311L55.7539 221.199Z"
          fill="url(#paint7_linear)"/>
    <path fill-rule="evenodd" clip-rule="evenodd"
          d="M73.4592 132.04C73.4592 132.04 73.928 149.777 79.085 151.215C84.242 152.653 68.3022 149.777 68.3022 149.777V132.04H73.4592Z"
          fill="url(#paint8_linear)"/>
    <path opacity="0.968564" fill-rule="evenodd" clip-rule="evenodd"
          d="M43.9551 198.872L76.0687 198.424L75.8345 172.986L56.1443 162.919L43.9551 198.872Z" fill="#6C1B84"/>
    <path fill-rule="evenodd" clip-rule="evenodd"
          d="M43.9551 196.567H77.241L76.0688 169.61L56.1443 160.614L43.9551 196.567Z" fill="url(#paint9_linear)"/>
    <path opacity="0.132743" fill-rule="evenodd" clip-rule="evenodd"
          d="M75.3503 177.882C75.3503 177.882 75.3503 174.527 76.288 163.022C77.2256 151.517 68.3181 153.434 68.3181 153.434L56.1289 167.336L75.3503 177.882Z"
          fill="#FFD002"/>
    <path fill-rule="evenodd" clip-rule="evenodd"
          d="M76.0689 168.457V173.068L56.8916 162.695L66.4803 160.39L76.0689 168.457Z" fill="#F7CD0F"/>
    <path fill-rule="evenodd" clip-rule="evenodd"
          d="M77.1972 171.915C77.1972 171.915 81.5356 163.051 82.4732 151.547C74.9721 150.108 68.8776 148.191 68.8776 148.191L59.1479 161.542L77.1972 171.915Z"
          fill="#FFD002"/>
    <path fill-rule="evenodd" clip-rule="evenodd"
          d="M74.3887 297.577H92.2037V295.875C92.2037 295.506 91.9344 295.192 91.5695 295.135L80.8271 293.476V292.304H76.2952L74.3887 297.577Z"
          fill="#0F6265"/>
    <path fill-rule="evenodd" clip-rule="evenodd"
          d="M11.0883 296.218L28.514 300.005L28.8601 298.34C28.9352 297.979 28.7364 297.615 28.3918 297.483L18.2199 293.575L17.0517 292.429L14.0253 291.465L11.0883 296.218Z"
          fill="#0F6265"/>
    <path opacity="0.487979" fill-rule="evenodd" clip-rule="evenodd"
          d="M51.9032 180.69C49.1711 194.576 42.7334 214.978 16.0511 195.593C-9.41411 174.101 15.3059 160.448 28.6121 153.099C30.7389 151.925 32.574 150.911 33.8661 150.052C39.2348 146.484 40.6073 142.13 41.9438 137.89C42.9415 134.725 43.9192 131.624 46.5241 128.96C48.3707 127.072 49.916 125.712 51.2513 124.586C51.2386 124.606 51.2256 124.626 51.2123 124.646C47.5037 130.188 46.399 135.908 45.4686 140.725C44.8701 143.824 44.3437 146.55 43.2425 148.614C40.4296 153.887 29.6468 160.119 21.2081 164.913C12.7695 169.707 15.1136 184.807 24.9587 189.361C34.8038 193.915 51.2123 180.253 51.2123 180.253L51.9032 180.69Z"
          fill="#9C27B0"/>
    <path fill-rule="evenodd" clip-rule="evenodd"
          d="M71.1629 131.162C71.1629 131.162 80.5392 133.08 81.4769 123.492C82.4145 113.905 74.9134 107.193 74.9134 107.193L70.7368 109.916L71.1629 131.162Z"
          fill="url(#paint10_linear)"/>
    <path fill-rule="evenodd" clip-rule="evenodd"
          d="M79.3412 112.709C79.3412 112.709 76.9971 109.833 74.1842 111.271C71.3713 112.709 77.4659 139.554 69.0273 150.58C60.5886 161.605 56.8381 164.481 54.0252 170.234C51.2123 175.986 51.6811 221.048 16.0511 195.161C-13.4842 170.234 24.4898 155.853 33.8661 149.621C43.2424 143.389 40.4295 134.76 46.5241 128.528C52.6187 122.297 55.4316 121.817 58.2445 116.544C61.0574 111.271 61.995 105.039 69.0273 103.601C76.0595 102.163 79.3412 112.709 79.3412 112.709Z"
          fill="url(#paint11_linear)"/>
    <path d="M74.8593 106.521C74.8593 106.521 67.1167 101.475 60.9044 109.813C54.6922 118.151 56.5231 121.754 52.7072 122.968C48.8914 124.181 39.52 130.127 39.7868 135.231"
          stroke="#655779" stroke-width="0.5"/>
    <path d="M65.7542 153.978C65.7542 153.978 61.9833 161.63 56.9554 168.007C53.1845 177.384 53.1845 203.719 34.3301 199.892"
          stroke="#655779" stroke-width="0.5"/>
    <path fill-rule="evenodd" clip-rule="evenodd" d="M55.7636 221.348L52.3794 215.712L54.0715 223.653L55.7636 221.348Z"
          fill="#6A1A82"/>
    <defs>
        <linearGradient id="paint0_linear" x1="81.0466" y1="67.7522" x2="81.0466" y2="220.515"
                        gradientUnits="userSpaceOnUse">
            <stop stop-color="#78CFC9"/>
            <stop offset="1" stop-color="#23C4BA"/>
        </linearGradient>
        <linearGradient id="paint1_linear" x1="81.0466" y1="43.8535" x2="81.0466" y2="72.9932"
                        gradientUnits="userSpaceOnUse">
            <stop stop-color="#7DD8D2"/>
            <stop offset="1" stop-color="#24C9BE"/>
        </linearGradient>
        <linearGradient id="paint2_linear" x1="265.765" y1="29.793" x2="265.765" y2="58.9661"
                        gradientUnits="userSpaceOnUse">
            <stop stop-color="#FFD92E"/>
            <stop offset="1" stop-color="#FFD002"/>
        </linearGradient>
        <linearGradient id="paint3_linear" x1="95.4252" y1="29.793" x2="95.4252" y2="58.9661"
                        gradientUnits="userSpaceOnUse">
            <stop stop-color="#FFD92E"/>
            <stop offset="1" stop-color="#FFD002"/>
        </linearGradient>
        <linearGradient id="paint4_linear" x1="155.993" y1="143.743" x2="188.075" y2="40.7505"
                        gradientUnits="userSpaceOnUse">
            <stop stop-color="#B02CC7"/>
            <stop offset="1" stop-color="#F2A6FF"/>
        </linearGradient>
        <linearGradient id="paint5_linear" x1="109.199" y1="54.0104" x2="109.199" y2="108.481"
                        gradientUnits="userSpaceOnUse">
            <stop stop-color="#FFD92E"/>
            <stop offset="1" stop-color="#FFD002"/>
        </linearGradient>
        <linearGradient id="paint6_linear" x1="44.1207" y1="134.688" x2="66.4152" y2="202.084"
                        gradientUnits="userSpaceOnUse">
            <stop stop-color="#FFCED6"/>
            <stop offset="1" stop-color="#FFA8B7"/>
        </linearGradient>
        <linearGradient id="paint7_linear" x1="74.4139" y1="209.224" x2="23.7144" y2="209.224"
                        gradientUnits="userSpaceOnUse">
            <stop stop-color="#9525B8"/>
            <stop offset="1" stop-color="#6C1B84"/>
        </linearGradient>
        <linearGradient id="paint8_linear" x1="62.373" y1="137.951" x2="77.5391" y2="158.963"
                        gradientUnits="userSpaceOnUse">
            <stop stop-color="#FFCED6"/>
            <stop offset="1" stop-color="#FFA8B7"/>
        </linearGradient>
        <linearGradient id="paint9_linear" x1="44.3955" y1="161.566" x2="44.3955" y2="196.567"
                        gradientUnits="userSpaceOnUse">
            <stop stop-color="#FFD92E"/>
            <stop offset="1" stop-color="#FFD002"/>
        </linearGradient>
        <linearGradient id="paint10_linear" x1="65.3979" y1="114.498" x2="85.1438" y2="134.431"
                        gradientUnits="userSpaceOnUse">
            <stop stop-color="#FFCED6"/>
            <stop offset="1" stop-color="#FFA8B7"/>
        </linearGradient>
        <linearGradient id="paint11_linear" x1="45.4161" y1="60.1218" x2="-38.831" y2="126.061"
                        gradientUnits="userSpaceOnUse">
            <stop stop-color="#6B5D80"/>
            <stop offset="1" stop-color="#372B47"/>
        </linearGradient>
    </defs>
</svg>
