<svg width="330" height="330" viewBox="0 0 330 330" fill="none" xmlns="http://www.w3.org/2000/svg">
    <path fill-rule="evenodd" clip-rule="evenodd"
          d="M107.684 58H264C292.775 58 316.105 77.1639 316.105 100.8V268.509C316.105 270.174 314.416 271.306 312.876 270.674L215.729 230.775C213.197 229.735 210.487 229.2 207.75 229.2H107.684C78.9095 229.2 55.5792 210.036 55.5792 186.4V100.8C55.5792 77.1639 78.9095 58 107.684 58Z"
          fill="url(#paint0_linear)"/>
    <rect opacity="0.39288" width="83.3684" height="10.439" rx="4.68" transform="matrix(-1 0 0 1 257.053 98.0161)"
          fill="white"/>
    <rect opacity="0.39288" width="149.368" height="10.439" rx="4.68" transform="matrix(-1 0 0 1 257.053 141.512)"
          fill="white"/>
    <path fill-rule="evenodd" clip-rule="evenodd"
          d="M71.4198 150.642C70.381 155.062 74.549 157.764 74.549 157.764C74.549 157.764 77.4985 162.837 73.8411 162.837C70.1836 162.837 65.3071 160.398 65.3071 156.739C65.3071 153.081 67.7454 150.642 65.3071 145.764C62.8688 140.885 68.7743 147.332 71.4198 150.642Z"
          fill="url(#paint1_linear)"/>
    <path opacity="0.29269" fill-rule="evenodd" clip-rule="evenodd"
          d="M65.2475 150.471L64.7292 151.819C67.2608 152.789 69.6942 152.336 72.0293 150.46C69.9096 150.936 67.649 150.94 65.2475 150.471Z"
          fill="#D98694"/>
    <path fill-rule="evenodd" clip-rule="evenodd"
          d="M144.399 170.511L146.83 166.898C146.83 166.898 183.297 156.058 197.885 142.81C203.963 147.627 203.963 141.606 206.394 139.197C207.023 138.573 207.653 137.767 208.282 136.78C209.274 135.226 214.45 130.394 211.256 130.766C208.062 131.138 197.885 137.992 197.885 137.992C197.885 137.992 144.399 154.854 139.536 158.467C134.674 162.08 132.243 166.898 132.243 166.898L144.399 170.511Z"
          fill="url(#paint2_linear)"/>
    <path fill-rule="evenodd" clip-rule="evenodd"
          d="M128.763 161.189C128.763 161.189 134.788 157.833 139.668 155.163C144.548 155.163 179.734 166.01 184.588 167.215C189.442 168.42 199.037 168.853 200.365 170.83C201.464 172.468 191.87 173.241 189.442 174.446C187.015 175.651 182.161 176.736 182.161 170.83C173.666 170.83 150.607 169.151 146.967 167.215C142.019 169.024 137.258 170.83 137.258 170.83L128.763 161.189Z"
          fill="url(#paint3_linear)"/>
    <path fill-rule="evenodd" clip-rule="evenodd"
          d="M75.1694 178.185C75.1694 178.185 89.7733 172.769 92.5698 171.907C95.3662 171.044 98.8339 171.907 99.4263 170.7C100.019 169.494 97.6915 166.621 102.553 166.621C107.415 166.621 104.288 164.93 104.288 164.93C104.288 164.93 92.134 164.93 90.9186 167.319C89.7032 169.707 75.1694 170.345 75.1694 170.345V178.185Z"
          fill="url(#paint4_linear)"/>
    <path fill-rule="evenodd" clip-rule="evenodd"
          d="M141.877 168.314C141.001 169.174 127.371 162.909 127.371 162.909L128.067 161.442L130.851 160.046C130.851 160.046 143.086 165.474 141.877 168.314Z"
          fill="#FFB7C4"/>
    <path fill-rule="evenodd" clip-rule="evenodd"
          d="M74.3957 157.63C73.8335 156.237 76.5298 161.74 72.8901 161.74C69.2505 161.74 63.1843 156.927 65.6108 154.521C68.0372 152.115 57.1182 155.724 54.6917 161.74C52.2652 167.755 38.9197 224.3 93.515 229.112C121.419 229.112 148.11 208.66 156.603 195.426C152.706 177.214 146.683 164.545 119.001 158.125C92.3103 196.624 80.4196 191.766 78.0101 180.112C78.0101 169.128 79.2486 164.849 74.3957 157.63Z"
          fill="url(#paint5_linear)"/>
    <path fill-rule="evenodd" clip-rule="evenodd"
          d="M101.753 157.568C101.808 157.309 102.062 157.143 102.322 157.198L110.914 159.029C111.173 159.084 111.339 159.339 111.284 159.598L108.444 172.989C108.389 173.249 108.134 173.414 107.875 173.359L99.2826 171.528C99.0233 171.473 98.8578 171.218 98.9128 170.959L101.753 157.568Z"
          fill="#574A6A"/>
    <path fill-rule="evenodd" clip-rule="evenodd"
          d="M102.824 159.223C102.879 158.963 103.134 158.798 103.393 158.853L109.263 160.104C109.522 160.159 109.687 160.414 109.632 160.673L107.371 171.335C107.316 171.594 107.062 171.759 106.802 171.704L100.933 170.454C100.674 170.398 100.508 170.144 100.563 169.884L102.824 159.223Z"
          fill="#FFEEA3"/>
    <path fill-rule="evenodd" clip-rule="evenodd"
          d="M74.1142 195.626C74.1142 195.626 65.643 178.882 65.643 171.707C65.643 164.531 62.0124 162.139 60.8022 162.139C59.592 162.139 49.9106 164.531 60.8022 189.646C66.8531 203.997 74.1142 205.193 74.1142 205.193C74.1142 205.193 77.7532 207.585 103.167 181.274C110.962 177.614 112.164 169.629 110.962 169.629C109.76 169.629 110.962 175.233 104.953 175.233C101.348 175.233 100.738 178.877 100.738 178.877L74.1142 195.626Z"
          fill="url(#paint6_linear)"/>
    <path fill-rule="evenodd" clip-rule="evenodd"
          d="M74.1142 192.835C74.1142 192.835 65.643 176.092 65.643 168.916C65.643 161.741 62.0124 159.349 60.8022 159.349C59.592 159.349 49.9106 161.741 60.8022 186.855C66.8531 201.207 74.1142 202.403 74.1142 202.403C74.1142 202.403 77.7532 204.795 103.167 178.484C110.962 174.824 112.164 166.838 110.962 166.838C109.76 166.838 110.962 172.443 104.953 172.443C101.348 172.443 100.738 176.086 100.738 176.086L74.1142 192.835Z"
          fill="url(#paint7_linear)"/>
    <path fill-rule="evenodd" clip-rule="evenodd"
          d="M65.8671 150.49C65.8671 150.49 76.173 152.931 76.5615 143.152C75.3841 132.154 70.4075 127.258 70.4075 127.258L65.4253 130.166L65.8671 150.49Z"
          fill="url(#paint8_linear)"/>
    <path fill-rule="evenodd" clip-rule="evenodd"
          d="M72.3855 129.35C71.662 129.506 70.1983 127.779 68.8214 130.533C67.4445 133.288 72.0859 157.452 63.6915 167.946C55.2971 178.439 51.5662 181.177 48.7681 186.652C45.9699 192.127 46.4363 235.014 10.9932 210.377C-18.3873 186.652 19.3876 172.964 28.7147 167.033C38.0419 161.102 35.2437 152.889 41.3064 146.958C47.369 141.027 50.1671 140.571 52.9653 135.552C55.7634 130.533 56.6961 124.602 63.6915 123.233C70.6868 121.864 73.7775 129.052 72.3855 129.35Z"
          fill="url(#paint9_linear)"/>
    <path d="M68.9052 124.849C68.9052 124.849 61.5311 120.135 55.6145 127.925C49.6979 135.716 51.4416 139.082 47.8074 140.216C44.1732 141.351 35.2478 146.906 35.5019 151.675"
          stroke="#655779" stroke-width="0.5"/>
    <path fill-rule="evenodd" clip-rule="evenodd"
          d="M77.9537 177.614C77.9537 177.614 71.2365 176.79 69.6016 176.79C72.7352 178.385 77.9537 180.278 77.9537 180.278V177.614Z"
          fill="url(#paint10_linear)"/>
    <path d="M58.4652 173.999C58.4652 173.999 54.8738 181.149 50.0852 187.108C46.4938 195.87 46.4938 220.475 28.5366 216.9"
          stroke="#655779" stroke-width="0.5"/>
    <path opacity="0.469936" fill-rule="evenodd" clip-rule="evenodd"
          d="M130.263 129.333C142.733 129.333 152.842 119.207 152.842 106.716C152.842 94.224 142.733 84.0977 130.263 84.0977C117.793 84.0977 107.684 94.224 107.684 106.716C107.684 119.207 117.793 129.333 130.263 129.333Z"
          fill="white"/>
    <path d="M130.1 120.293C137.683 120.293 143.831 114.138 143.831 106.545C143.831 98.9522 137.683 92.7969 130.1 92.7969C122.516 92.7969 116.369 98.9522 116.369 106.545C116.369 114.138 122.516 120.293 130.1 120.293Z"
          fill="#C15ED4"/>
    <mask id="mask0" mask-type="alpha" maskUnits="userSpaceOnUse" x="116" y="92" width="28" height="29">
        <path d="M130.1 120.293C137.683 120.293 143.831 114.138 143.831 106.545C143.831 98.9522 137.683 92.7969 130.1 92.7969C122.516 92.7969 116.369 98.9522 116.369 106.545C116.369 114.138 122.516 120.293 130.1 120.293Z"
              fill="white"/>
    </mask>
    <g mask="url(#mask0)">
        <path fill-rule="evenodd" clip-rule="evenodd"
              d="M133.008 108.897V111.455H127.191C127.191 111.455 127.202 107.673 127.191 105.169C125.888 103.472 125.888 102.411 126.918 101.315C127.948 100.219 135.28 99.6709 135.28 99.6709C135.28 99.6709 135.83 104.988 135.916 106.431C135.951 107.011 136.325 108.897 134.871 108.897C134.054 108.897 133.008 108.897 133.008 108.897Z"
              fill="url(#paint11_linear)"/>
        <path fill-rule="evenodd" clip-rule="evenodd"
              d="M133.043 108.47C131.293 108.274 130.1 107.527 130.1 107.527C130.1 107.527 130.657 109.02 133.043 109.491V108.47Z"
              fill="url(#paint12_linear)"/>
        <path fill-rule="evenodd" clip-rule="evenodd"
              d="M128.075 102.497C127.776 102.245 127.414 102.076 126.902 102.338C125.688 102.958 126.494 105.351 127.852 105.305C128.321 105.289 128.106 106.208 126.854 106.815C126.854 105.846 125.353 103.447 125.222 101.263C123.712 100.71 124.087 98.4968 125.124 98.4968C124.958 96.4677 128.26 95.4201 129.539 96.5841C130.839 95.051 134.121 95.8353 134.32 97.1653C136.576 95.9799 138.06 99.3876 135.947 100.71C135.077 101.254 133.043 101.462 130.107 101.462C128.697 101.462 129.508 104.707 129.948 105.754C130.511 107.092 133.652 107.276 134.637 107.138C135.406 107.03 135.809 106.723 135.856 106.538C136.559 108.384 135.669 109.491 134.262 109.491C131.871 109.491 129.479 108.799 129.104 107.092C128.806 105.733 128.822 103.541 128.075 102.497Z"
              fill="url(#paint13_linear)"/>
        <path fill-rule="evenodd" clip-rule="evenodd"
              d="M139.54 115.303C140.111 116.494 140.56 118.464 140.889 121.212H119.311C119.64 118.464 120.089 116.494 120.66 115.303C121.228 114.116 126.504 111.83 126.504 111.83C126.504 111.83 126.609 110.786 126.863 110.636C127.118 110.486 133.033 110.487 133.337 110.636C133.64 110.786 133.696 111.83 133.696 111.83C133.696 111.83 138.973 114.118 139.54 115.303Z"
              fill="url(#paint14_linear)"/>
        <mask id="mask1" mask-type="alpha" maskUnits="userSpaceOnUse" x="119" y="110" width="22" height="12">
            <path fill-rule="evenodd" clip-rule="evenodd"
                  d="M139.54 115.303C140.111 116.494 140.56 118.464 140.889 121.212H119.311C119.64 118.464 120.089 116.494 120.66 115.303C121.228 114.116 126.504 111.83 126.504 111.83C126.504 111.83 126.609 110.786 126.863 110.636C127.118 110.486 133.033 110.487 133.337 110.636C133.64 110.786 133.696 111.83 133.696 111.83C133.696 111.83 138.973 114.118 139.54 115.303Z"
                  fill="white"/>
        </mask>
        <g mask="url(#mask1)">
        </g>
    </g>
    <path d="M311.763 176.309C321.835 176.309 330 168.13 330 158.041C330 147.951 321.835 139.772 311.763 139.772C301.691 139.772 293.526 147.951 293.526 158.041C293.526 168.13 301.691 176.309 311.763 176.309Z"
          fill="url(#paint15_linear)"/>
    <mask id="mask2" mask-type="alpha" maskUnits="userSpaceOnUse" x="293" y="139" width="37" height="38">
        <path d="M311.763 176.309C321.835 176.309 330 168.13 330 158.041C330 147.951 321.835 139.772 311.763 139.772C301.691 139.772 293.526 147.951 293.526 158.041C293.526 168.13 301.691 176.309 311.763 176.309Z"
              fill="white"/>
    </mask>
    <g mask="url(#mask2)">
        <path fill-rule="evenodd" clip-rule="evenodd"
              d="M323.582 168.136C324.484 169.896 324.934 176.309 324.934 176.309H299.605C299.605 176.309 300.056 169.896 300.958 168.136C302.311 165.496 312.27 162.101 312.27 162.101C312.27 162.101 322.229 165.496 323.582 168.136Z"
              fill="url(#paint16_linear)"/>
        <path fill-rule="evenodd" clip-rule="evenodd"
              d="M321.707 161.086L301.965 158.743C300.992 153.669 302.146 150.472 305.429 149.152C306.946 144.27 312.851 144.668 314.525 145.066C320.222 146.42 322.616 151.76 321.707 161.086Z"
              fill="url(#paint17_linear)"/>
        <path fill-rule="evenodd" clip-rule="evenodd"
              d="M308.669 164.283V156.89C305.677 156.844 306.261 151.502 309.267 153.132C309.805 153.378 311.18 152.701 310.702 151.037C313.93 153.502 318.429 149.177 318.713 151.838C319.272 157.076 318.19 161.381 315.322 161.382C315.041 161.382 314.766 161.391 314.409 161.326V164.283C313.472 164.858 312.536 165.145 311.6 165.145C310.664 165.145 309.687 164.858 308.669 164.283Z"
              fill="url(#paint18_linear)"/>
        <path opacity="0.29269" fill-rule="evenodd" clip-rule="evenodd"
              d="M314.803 160.967V162.1C313.066 162.1 311.715 161.085 310.75 159.056C311.908 160 313.259 160.637 314.803 160.967Z"
              fill="#DB6F3D"/>
        <path fill-rule="evenodd" clip-rule="evenodd"
              d="M312.266 165.171C313.086 165.133 315.149 164.729 315.149 163.854V163.115C315.369 163.115 315.999 163.611 316.323 164.03C317.604 165.688 316.183 167.175 315.025 167.175C313.563 167.175 312.594 166.011 312.27 165.45C311.945 166.011 310.977 167.175 309.515 167.175C308.356 167.175 306.935 165.688 308.216 164.03C308.54 163.611 309.17 163.115 309.39 163.115V163.854C309.39 164.729 311.399 165.133 312.266 165.171H312.266Z"
              fill="white"/>
    </g>
    <defs>
        <linearGradient id="paint0_linear" x1="115.552" y1="14.518" x2="148.357" y2="315.665"
                        gradientUnits="userSpaceOnUse">
            <stop stop-color="#9C27B0"/>
            <stop offset="1" stop-color="#E498FB"/>
        </linearGradient>
        <linearGradient id="paint1_linear" x1="72.8527" y1="139.753" x2="62.4569" y2="141.783"
                        gradientUnits="userSpaceOnUse">
            <stop stop-color="#FFCED6"/>
            <stop offset="1" stop-color="#FFA8B7"/>
        </linearGradient>
        <linearGradient id="paint2_linear" x1="190.629" y1="121.777" x2="136.841" y2="157.543"
                        gradientUnits="userSpaceOnUse">
            <stop stop-color="#FFCED6"/>
            <stop offset="1" stop-color="#FFA8B7"/>
        </linearGradient>
        <linearGradient id="paint3_linear" x1="93.4681" y1="161.248" x2="97.5112" y2="193.64"
                        gradientUnits="userSpaceOnUse">
            <stop stop-color="#FFCED6"/>
            <stop offset="1" stop-color="#FFA8B7"/>
        </linearGradient>
        <linearGradient id="paint4_linear" x1="97.3024" y1="161.941" x2="78.5948" y2="176.087"
                        gradientUnits="userSpaceOnUse">
            <stop stop-color="#FFCED6"/>
            <stop offset="1" stop-color="#FFA8B7"/>
        </linearGradient>
        <linearGradient id="paint5_linear" x1="63.7934" y1="164.927" x2="63.7934" y2="222.653"
                        gradientUnits="userSpaceOnUse">
            <stop stop-color="#7DD8D2"/>
            <stop offset="1" stop-color="#23C4BA"/>
        </linearGradient>
        <linearGradient id="paint6_linear" x1="105.18" y1="198.707" x2="105.18" y2="165.059"
                        gradientUnits="userSpaceOnUse">
            <stop stop-color="#22BAB0"/>
            <stop offset="1" stop-color="#27D9CD"/>
        </linearGradient>
        <linearGradient id="paint7_linear" x1="96.2974" y1="149.594" x2="50.6" y2="169.027"
                        gradientUnits="userSpaceOnUse">
            <stop stop-color="#FFCED6"/>
            <stop offset="1" stop-color="#FFA8B7"/>
        </linearGradient>
        <linearGradient id="paint8_linear" x1="63.8181" y1="128.755" x2="74.6364" y2="144.13"
                        gradientUnits="userSpaceOnUse">
            <stop stop-color="#FFCED6"/>
            <stop offset="1" stop-color="#FFA8B7"/>
        </linearGradient>
        <linearGradient id="paint9_linear" x1="39.5303" y1="81.7869" x2="-41.1817" y2="146.675"
                        gradientUnits="userSpaceOnUse">
            <stop stop-color="#6B5D80"/>
            <stop offset="1" stop-color="#372B47"/>
        </linearGradient>
        <linearGradient id="paint10_linear" x1="70.2527" y1="177.034" x2="70.2527" y2="179.979"
                        gradientUnits="userSpaceOnUse">
            <stop stop-color="#78CFC9"/>
            <stop offset="1" stop-color="#23C2B7"/>
        </linearGradient>
        <linearGradient id="paint11_linear" x1="133.331" y1="97.0132" x2="124.494" y2="99.443"
                        gradientUnits="userSpaceOnUse">
            <stop stop-color="#FFCED6"/>
            <stop offset="1" stop-color="#FFA8B7"/>
        </linearGradient>
        <linearGradient id="paint12_linear" x1="132.246" y1="107.084" x2="129.956" y2="108.218"
                        gradientUnits="userSpaceOnUse">
            <stop stop-color="#FFCED6"/>
            <stop offset="1" stop-color="#FFA8B7"/>
        </linearGradient>
        <linearGradient id="paint13_linear" x1="131.147" y1="89.7628" x2="119.178" y2="101.409"
                        gradientUnits="userSpaceOnUse">
            <stop stop-color="#6B5D80"/>
            <stop offset="1" stop-color="#372B47"/>
        </linearGradient>
        <linearGradient id="paint14_linear" x1="140.889" y1="121.212" x2="140.889" y2="110.524"
                        gradientUnits="userSpaceOnUse">
            <stop stop-color="#F7CA00"/>
            <stop offset="1" stop-color="#FFD2C2"/>
        </linearGradient>
        <linearGradient id="paint15_linear" x1="328.956" y1="175.272" x2="328.956" y2="140.828"
                        gradientUnits="userSpaceOnUse">
            <stop stop-color="white" stop-opacity="0.236979"/>
            <stop offset="1" stop-color="white" stop-opacity="0.641899"/>
        </linearGradient>
        <linearGradient id="paint16_linear" x1="300.819" y1="163.001" x2="300.819" y2="175.848"
                        gradientUnits="userSpaceOnUse">
            <stop stop-color="#CAF0EE"/>
            <stop offset="1" stop-color="#7DD8D2"/>
        </linearGradient>
        <linearGradient id="paint17_linear" x1="312.648" y1="137.784" x2="299.003" y2="155.647"
                        gradientUnits="userSpaceOnUse">
            <stop stop-color="#6B5D80"/>
            <stop offset="1" stop-color="#372B47"/>
        </linearGradient>
        <linearGradient id="paint18_linear" x1="315.566" y1="147.732" x2="304.655" y2="150.816"
                        gradientUnits="userSpaceOnUse">
            <stop stop-color="#FFCED6"/>
            <stop offset="1" stop-color="#FFA8B7"/>
        </linearGradient>
    </defs>
</svg>
