<svg width="330" height="330" viewBox="0 0 330 330" fill="none" xmlns="http://www.w3.org/2000/svg">
    <rect x="19" y="9" width="153.487" height="308.558" rx="12.8" fill="url(#paint0_linear)"/>
    <path fill-rule="evenodd" clip-rule="evenodd"
          d="M57.7618 18.9536H37.3351C32.0332 18.9536 27.7351 23.2517 27.7351 28.5536V301.737C27.7351 307.039 32.0332 311.337 37.3351 311.337H155.4C160.702 311.337 165 307.039 165 301.737V28.5536C165 23.2517 160.702 18.9536 155.4 18.9536H134.973V22.3717C134.973 26.9667 131.248 30.6917 126.653 30.6917H66.0818C61.4868 30.6917 57.7618 26.9667 57.7618 22.3717V18.9536Z"
          fill="white"/>
    <rect x="76.4016" y="20.1978" width="24.9573" height="2.48837" rx="0.64" fill="#1EA69D"/>
    <path fill-rule="evenodd" clip-rule="evenodd"
          d="M112.59 22.6862C113.968 22.6862 115.085 21.5721 115.085 20.1978C115.085 18.8236 113.968 17.7095 112.59 17.7095C111.211 17.7095 110.094 18.8236 110.094 20.1978C110.094 21.5721 111.211 22.6862 112.59 22.6862Z"
          fill="#1EA69D"/>
    <path fill-rule="evenodd" clip-rule="evenodd"
          d="M262.336 327.772C262.184 330.174 268.144 327.772 272.015 324.917C275.887 322.063 282.299 315.782 282.299 315.782C282.299 315.782 280.933 312.265 279.804 311.337C279.167 310.815 278.935 310.79 278.307 310.453C275.691 309.05 273.564 312.582 273.564 312.582C273.564 312.582 262.489 325.37 262.336 327.772Z"
          fill="#0F6265"/>
    <path fill-rule="evenodd" clip-rule="evenodd"
          d="M265.097 264.058C265.097 264.058 273.921 272.792 275.882 281.526C277.843 290.261 279.804 311.337 279.804 311.337L273.564 312.581C273.564 312.581 252.351 271.822 252.351 270.851C252.351 269.881 252.351 264.058 252.351 264.058H265.097Z"
          fill="url(#paint1_linear)"/>
    <path fill-rule="evenodd" clip-rule="evenodd"
          d="M225.768 325.522C225.206 327.461 231.331 326.301 235.431 324.051C239.531 321.801 247.862 316.378 247.862 316.378L245.744 311.443L239.085 311.443C239.085 311.443 226.33 323.584 225.768 325.522Z"
          fill="#0F6265"/>
    <path fill-rule="evenodd" clip-rule="evenodd"
          d="M245.198 264.541C249.05 271.458 250.802 277.775 250.453 283.492C250.105 289.21 248.157 298.559 245.744 311.444L239.085 311.444C234.011 282.849 231.518 268.07 231.69 267.473L233.497 261.202L245.198 264.541Z"
          fill="url(#paint2_linear)"/>
    <path fill-rule="evenodd" clip-rule="evenodd"
          d="M187.631 187.298L295.849 177.517C298.426 177.284 300.695 179.23 300.918 181.863L307.457 259.103C307.68 261.736 305.772 264.059 303.196 264.292L194.977 274.073C192.401 274.306 190.132 272.36 189.909 269.726L183.37 192.487C183.147 189.854 185.055 187.53 187.631 187.298Z"
          fill="url(#paint3_linear)"/>
    <path opacity="0.552083" fill-rule="evenodd" clip-rule="evenodd"
          d="M201.842 245.424L280.198 238.601C281.743 238.467 283.106 239.604 283.241 241.143C283.376 242.681 282.233 244.037 280.687 244.172L202.331 250.995C200.786 251.129 199.423 249.991 199.288 248.453C199.153 246.915 200.296 245.559 201.842 245.424Z"
          fill="#FFF4C4"/>
    <path opacity="0.552083" fill-rule="evenodd" clip-rule="evenodd"
          d="M203.128 255.43L244.171 251.856C245.717 251.721 247.08 252.859 247.215 254.397C247.35 255.936 246.207 257.292 244.661 257.426L203.617 261C202.072 261.135 200.709 259.997 200.574 258.459C200.439 256.92 201.582 255.564 203.128 255.43Z"
          fill="#FFF4C4"/>
    <path fill-rule="evenodd" clip-rule="evenodd"
          d="M198.345 200.516C198.222 199.107 199.264 197.865 200.673 197.742L282.59 190.596C283.998 190.473 285.24 191.515 285.363 192.923L288.505 228.724C288.628 230.133 287.586 231.375 286.177 231.498L204.26 238.644C202.852 238.767 201.61 237.725 201.487 236.317L198.345 200.516Z"
          fill="#FFE573"/>
    <path fill-rule="evenodd" clip-rule="evenodd"
          d="M252.351 209.589C252.351 209.589 243.233 226.377 241.478 225.435C239.723 224.492 244.988 215.066 244.988 214.123C244.988 213.181 242.355 217.894 241.478 216.951C240.601 216.009 246.111 208.07 247.359 208.07C248.607 208.07 252.351 209.589 252.351 209.589Z"
          fill="url(#paint4_linear)"/>
    <path fill-rule="evenodd" clip-rule="evenodd"
          d="M249.855 133.419C249.855 133.419 248.607 143.315 249.855 144.616C249.855 144.616 249.85 148.606 244.237 149.47C238.624 150.334 237.376 144.616 237.376 144.616L242.368 130.93L249.855 133.419Z"
          fill="url(#paint5_linear)"/>
    <path fill-rule="evenodd" clip-rule="evenodd"
          d="M248.809 122.939C248.809 122.939 256.094 120.785 256.094 125.094C256.094 129.404 250.779 135.103 247.483 132.948C244.187 130.793 248.809 122.939 248.809 122.939Z"
          fill="url(#paint6_linear)"/>
    <path fill-rule="evenodd" clip-rule="evenodd"
          d="M232.765 117.112C229.709 121.045 228.365 126.452 228.821 131.071C228.954 132.414 228.345 133.52 228.641 134.663C229.956 139.739 242.368 137.151 242.368 137.151L246.111 132.174L249.855 120.965L241.967 118.381C241.967 118.381 234.729 114.373 232.765 117.112Z"
          fill="url(#paint7_linear)"/>
    <path fill-rule="evenodd" clip-rule="evenodd"
          d="M250.124 125.834C250.936 125.357 251.864 125.104 252.966 125.94C255.576 127.923 252.66 133.289 249.465 132.614C248.363 132.381 248.483 134.66 251.19 136.627C251.599 134.319 256.161 129.227 257.392 124.078C261.199 123.387 261.245 117.959 258.792 117.528C260.041 112.763 252.671 108.896 249.155 111.139C246.726 106.946 238.63 107.452 237.6 110.538C232.761 106.777 227.813 114.279 232.254 118.307C234.082 119.965 238.807 121.303 245.754 122.522C249.088 123.107 245.801 130.502 244.317 132.814C242.421 135.768 234.911 134.903 232.64 134.165C230.866 133.588 228.834 131.694 228.801 131.235C226.358 135.339 229.206 139.341 232.534 139.925C238.191 140.918 244.141 140.263 245.749 136.352C247.028 133.239 247.915 128.01 250.124 125.834Z"
          fill="url(#paint8_linear)"/>
    <path fill-rule="evenodd" clip-rule="evenodd"
          d="M169.992 137.422C169.992 137.422 153.499 134.897 152.583 136.58C151.666 138.264 164.494 139.947 164.494 139.947C164.494 139.947 164.494 140.788 162.661 140.788C160.829 140.788 158.08 140.788 159.913 141.63C161.745 142.471 169.462 141.892 169.462 141.892L169.992 137.422Z"
          fill="url(#paint9_linear)"/>
    <path fill-rule="evenodd" clip-rule="evenodd"
          d="M227.393 145.861C227.393 145.861 210.653 144.673 209.611 144.5C174.84 138.71 171.791 137.746 169.368 137.151C168.432 138.988 167.496 143.581 167.496 143.581C167.496 143.581 172.142 145.471 174.116 146.248C178.496 147.974 181.728 149.151 183.813 149.779C187.584 150.915 190.731 151.568 193.255 151.738C194.344 151.811 195.428 151.848 196.508 151.848C208.675 156.441 227.393 163.279 227.393 163.279V145.861Z"
          fill="url(#paint10_linear)"/>
    <path fill-rule="evenodd" clip-rule="evenodd"
          d="M237.376 144.616C237.376 144.616 238.624 148.573 242.367 148.573C246.11 148.573 248.511 146.661 249.855 144.616C252.689 145.544 262.524 148.573 262.524 148.573C262.524 148.573 277.308 183.568 277.308 185.422C277.308 187.277 274.473 191.913 270.694 194.695C266.915 197.477 251.775 210.558 251.775 210.558L246.128 208.605C246.128 208.605 250.852 198.404 255.577 193.768C260.301 189.131 265.025 185.422 265.025 185.422L262.524 180.576L224.888 183.947L227.393 145.86L237.376 144.616Z"
          fill="url(#paint11_linear)"/>
    <path fill-rule="evenodd" clip-rule="evenodd"
          d="M37.718 38.4201C37.718 37.7032 37.718 37.3448 37.8575 37.071C37.9802 36.8301 38.1761 36.6343 38.4169 36.5116C38.6907 36.3721 39.0492 36.3721 39.766 36.3721H152.969C153.686 36.3721 154.044 36.3721 154.318 36.5116C154.559 36.6343 154.755 36.8301 154.878 37.071C155.017 37.3448 155.017 37.7032 155.017 38.4201V87.8241C155.017 88.5409 155.017 88.8994 154.878 89.1732C154.755 89.414 154.559 89.6098 154.318 89.7326C154.044 89.8721 153.686 89.8721 152.969 89.8721H39.766C39.0492 89.8721 38.6907 89.8721 38.4169 89.7326C38.1761 89.6098 37.9802 89.414 37.8575 89.1732C37.718 88.8994 37.718 88.5409 37.718 87.8241L37.718 38.4201Z"
          fill="url(#paint12_linear)"/>
    <path fill-rule="evenodd" clip-rule="evenodd"
          d="M96.9915 55.035C98.7151 55.035 100.111 53.5503 100.111 51.7172C100.111 51.0951 99.9474 50.5062 99.6666 50.0085L96.9915 45.0815L94.3164 50.0085C94.0356 50.5062 93.8718 51.0951 93.8718 51.7172C93.8718 53.5503 95.2679 55.035 96.9915 55.035Z"
          fill="#81EBE4"/>
    <path fill-rule="evenodd" clip-rule="evenodd"
          d="M107.167 60.0851V60.0851H98.1599V56.2793H94.557V60.0851H85.5497C82.5682 60.0851 80.1453 62.6444 80.1453 65.7937V68.7241C80.1453 70.7792 81.7305 72.4537 83.6761 72.4537C84.6219 72.4537 85.5046 72.0637 86.1712 71.3595L90.0263 67.2969L93.8725 71.35C95.2056 72.7581 97.5295 72.7581 98.8625 71.35L102.718 67.2969L106.564 71.35C107.23 72.054 108.113 72.4442 109.059 72.4442C111.004 72.4442 112.59 70.7697 112.59 68.7146V65.7937C112.572 62.6444 110.149 60.0851 107.167 60.0851Z"
          fill="#81EBE4"/>
    <path fill-rule="evenodd" clip-rule="evenodd"
          d="M104.65 73.0959V73.0959L102.712 71.2095L100.766 73.0959C98.4134 75.386 94.3038 75.386 91.9515 73.0959L90.0138 71.2095L88.0671 73.0959C86.9045 74.2453 85.3454 74.8771 83.6781 74.8771C82.3713 74.8771 81.1546 74.4734 80.1453 73.7978V81.8965C80.1453 82.8617 80.9564 83.6513 81.9477 83.6513H110.787C111.779 83.6513 112.59 82.8617 112.59 81.8965V73.7979C111.58 74.4735 110.373 74.8771 109.057 74.8771C107.39 74.8771 105.831 74.2454 104.65 73.0959Z"
          fill="#81EBE4"/>
    <rect x="37.718" y="97.3374" width="96.0855" height="6.22092" rx="3.11046" fill="#81EBE4"/>
    <rect x="37.718" y="111.023" width="53.6581" height="6.22093" rx="3.11047" fill="#81EBE4"/>
    <path fill-rule="evenodd" clip-rule="evenodd"
          d="M37.718 140.444C37.718 139.727 37.718 139.368 37.8575 139.094C37.9802 138.854 38.1761 138.658 38.4169 138.535C38.6907 138.396 39.0492 138.396 39.766 138.396H152.969C153.686 138.396 154.044 138.396 154.318 138.535C154.559 138.658 154.755 138.854 154.878 139.094C155.017 139.368 155.017 139.727 155.017 140.444V189.848C155.017 190.564 155.017 190.923 154.878 191.197C154.755 191.437 154.559 191.633 154.318 191.756C154.044 191.896 153.686 191.896 152.969 191.896H39.766C39.0492 191.896 38.6907 191.896 38.4169 191.756C38.1761 191.633 37.9802 191.437 37.8575 191.197C37.718 190.923 37.718 190.564 37.718 189.848L37.718 140.444Z"
          fill="url(#paint13_linear)"/>
    <path fill-rule="evenodd" clip-rule="evenodd"
          d="M37.718 241.222C37.718 240.505 37.718 240.147 37.8575 239.873C37.9802 239.632 38.1761 239.437 38.4169 239.314C38.6907 239.174 39.0492 239.174 39.766 239.174H152.969C153.686 239.174 154.044 239.174 154.318 239.314C154.559 239.437 154.755 239.632 154.878 239.873C155.017 240.147 155.017 240.505 155.017 241.222V290.626C155.017 291.343 155.017 291.702 154.878 291.975C154.755 292.216 154.559 292.412 154.318 292.535C154.044 292.674 153.686 292.674 152.969 292.674H39.766C39.0492 292.674 38.6907 292.674 38.4169 292.535C38.1761 292.412 37.9802 292.216 37.8575 291.975C37.718 291.702 37.718 291.343 37.718 290.626L37.718 241.222Z"
          fill="url(#paint14_linear)"/>
    <rect x="37.718" y="199.36" width="96.0855" height="6.22093" rx="3.11047" fill="#81EBE4"/>
    <rect x="37.718" y="211.802" width="53.6581" height="6.22093" rx="3.11047" fill="#81EBE4"/>
    <rect x="37.718" y="300.14" width="96.0855" height="6.22089" rx="3.11044" fill="#81EBE4"/>
    <path fill-rule="evenodd" clip-rule="evenodd"
          d="M96.9914 273.701L87.8229 278.506L89.5739 268.327L82.1565 261.118L92.4071 259.633L96.9914 250.372L101.576 259.633L111.826 261.118L104.409 268.327L106.16 278.506L96.9914 273.701Z"
          fill="#81EBE4"/>
    <path fill-rule="evenodd" clip-rule="evenodd"
          d="M112.155 148.502C112.021 148.385 111.845 148.332 111.666 148.353L92.4634 150.835C92.1543 150.875 91.9232 151.137 91.9232 151.448V155.171V157.776V173.883C90.8472 172.652 89.1691 171.857 87.2779 171.857C84.0276 171.857 81.3931 174.196 81.3931 177.081C81.3931 179.966 84.0276 182.305 87.2779 182.305C90.5282 182.305 93.1627 179.966 93.1627 177.081C93.1627 176.875 93.146 176.674 93.12 176.474C93.1448 176.407 93.1627 176.337 93.1627 176.262V158.32L111.127 155.998V167.696C110.05 166.465 108.372 165.67 106.481 165.67C103.231 165.67 100.596 168.01 100.596 170.894C100.596 173.779 103.231 176.118 106.481 176.118C109.731 176.118 112.366 173.779 112.366 170.894C112.366 170.837 112.358 170.782 112.357 170.726C112.358 170.709 112.366 170.695 112.366 170.678V155.294V152.689V148.967C112.366 148.789 112.289 148.619 112.155 148.502Z"
          fill="#81EBE4"/>
    <defs>
        <linearGradient id="paint0_linear" x1="16.4591" y1="-1.21593" x2="16.4591" y2="317.558"
                        gradientUnits="userSpaceOnUse">
            <stop stop-color="#25CABF"/>
            <stop offset="1" stop-color="#23C4BA"/>
        </linearGradient>
        <linearGradient id="paint1_linear" x1="267.276" y1="242.953" x2="230.177" y2="264.974"
                        gradientUnits="userSpaceOnUse">
            <stop stop-color="#6B5D80"/>
            <stop offset="1" stop-color="#372B47"/>
        </linearGradient>
        <linearGradient id="paint2_linear" x1="246.843" y1="241.565" x2="213.274" y2="251.307"
                        gradientUnits="userSpaceOnUse">
            <stop stop-color="#6B5D80"/>
            <stop offset="1" stop-color="#372B47"/>
        </linearGradient>
        <linearGradient id="paint3_linear" x1="185.574" y1="176.283" x2="182.176" y2="273.662"
                        gradientUnits="userSpaceOnUse">
            <stop stop-color="#FFD92E"/>
            <stop offset="1" stop-color="#FFD002"/>
        </linearGradient>
        <linearGradient id="paint4_linear" x1="235.591" y1="213.307" x2="248.799" y2="232.566"
                        gradientUnits="userSpaceOnUse">
            <stop stop-color="#FFCED6"/>
            <stop offset="1" stop-color="#FFA8B7"/>
        </linearGradient>
        <linearGradient id="paint5_linear" x1="231.233" y1="136.54" x2="245.186" y2="157.646"
                        gradientUnits="userSpaceOnUse">
            <stop stop-color="#FFCED6"/>
            <stop offset="1" stop-color="#FFA8B7"/>
        </linearGradient>
        <linearGradient id="paint6_linear" x1="241.196" y1="125.589" x2="248.445" y2="140.201"
                        gradientUnits="userSpaceOnUse">
            <stop stop-color="#FFCED6"/>
            <stop offset="1" stop-color="#FFA8B7"/>
        </linearGradient>
        <linearGradient id="paint7_linear" x1="218.074" y1="122.624" x2="231.622" y2="152.241"
                        gradientUnits="userSpaceOnUse">
            <stop stop-color="#FFCED6"/>
            <stop offset="1" stop-color="#FFA8B7"/>
        </linearGradient>
        <linearGradient id="paint8_linear" x1="248.213" y1="94.2166" x2="271.87" y2="126.782"
                        gradientUnits="userSpaceOnUse">
            <stop stop-color="#6B5D80"/>
            <stop offset="1" stop-color="#372B47"/>
        </linearGradient>
        <linearGradient id="paint9_linear" x1="143.921" y1="137.778" x2="145.475" y2="147.649"
                        gradientUnits="userSpaceOnUse">
            <stop stop-color="#FFCED6"/>
            <stop offset="1" stop-color="#FFA8B7"/>
        </linearGradient>
        <linearGradient id="paint10_linear" x1="174.499" y1="141.021" x2="174.499" y2="161.039"
                        gradientUnits="userSpaceOnUse">
            <stop stop-color="#7DD8D2"/>
            <stop offset="1" stop-color="#23C4BA"/>
        </linearGradient>
        <linearGradient id="paint11_linear" x1="231.017" y1="154.383" x2="231.017" y2="204.904"
                        gradientUnits="userSpaceOnUse">
            <stop stop-color="#7DD8D2"/>
            <stop offset="1" stop-color="#23C4BA"/>
        </linearGradient>
        <linearGradient id="paint12_linear" x1="52.8688" y1="45.6057" x2="52.8688" y2="85.2852"
                        gradientUnits="userSpaceOnUse">
            <stop stop-color="#DBFFFD"/>
            <stop offset="1" stop-color="#B3FFFA"/>
        </linearGradient>
        <linearGradient id="paint13_linear" x1="52.8688" y1="147.629" x2="52.8688" y2="187.309"
                        gradientUnits="userSpaceOnUse">
            <stop stop-color="#DBFFFD"/>
            <stop offset="0.528411" stop-color="#C6FFFB"/>
            <stop offset="1" stop-color="#B3FFFA"/>
        </linearGradient>
        <linearGradient id="paint14_linear" x1="52.8688" y1="248.408" x2="52.8688" y2="288.087"
                        gradientUnits="userSpaceOnUse">
            <stop stop-color="#DBFFFD"/>
            <stop offset="1" stop-color="#B3FFFA"/>
        </linearGradient>
    </defs>
</svg>
