<svg width="330" height="330" viewBox="0 0 330 330" fill="none" xmlns="http://www.w3.org/2000/svg">
    <g clip-path="url(#clip0)">
        <path fill-rule="evenodd" clip-rule="evenodd"
              d="M163.028 304.896C234.621 304.896 292.658 246.74 292.658 175C292.658 103.261 234.621 45.1045 163.028 45.1045C91.4358 45.1045 33.3987 103.261 33.3987 175C33.3987 246.74 91.4358 304.896 163.028 304.896Z"
              fill="#721C8C"/>
        <path d="M26.82 65.6368L20.187 48.3137L42.3583 49.7192L35.4239 31.6087" stroke="#FFD002" stroke-width="3.072"
              stroke-linecap="round" stroke-linejoin="round"/>
        <path d="M271.724 23.6451L261.37 39.0296" stroke="#FFD002" stroke-width="3.072" stroke-linecap="round"
              stroke-linejoin="round"/>
        <rect x="45.8101" y="103.833" width="245.164" height="175.601" rx="5.78794" fill="url(#paint0_linear)"/>
        <rect x="45.8101" y="103.833" width="231.696" height="175.601" rx="5.78794" fill="url(#paint1_linear)"/>
        <path opacity="0.65718" fill-rule="evenodd" clip-rule="evenodd"
              d="M290.974 117.1H45.8101V89.3919C45.8101 86.1954 48.4014 83.604 51.598 83.604H285.186C288.383 83.604 290.974 86.1954 290.974 89.3919V117.1Z"
              fill="#1EA79D"/>
        <path fill-rule="evenodd" clip-rule="evenodd"
              d="M290.974 113.712H45.8101V84.3167C45.8101 81.1201 48.4014 78.5288 51.598 78.5288H285.186C288.383 78.5288 290.974 81.1202 290.974 84.3167V113.712Z"
              fill="url(#paint2_linear)"/>
        <rect x="239.52" y="70.4087" width="12.1069" height="26.3909" rx="2.39501" fill="url(#paint3_linear)"/>
        <rect x="87.1753" y="70.4087" width="12.1069" height="26.3909" rx="2.39501" fill="url(#paint4_linear)"/>
        <path fill-rule="evenodd" clip-rule="evenodd"
              d="M270.772 280.098H51.9173C42.6202 280.098 35.0823 272.393 35.0823 262.891V254.287H253.937V262.891C253.937 272.393 261.475 280.098 270.772 280.098Z"
              fill="#2B877F"/>
        <path fill-rule="evenodd" clip-rule="evenodd"
              d="M237.102 262.891V254.287H35.0823V262.891C35.0823 272.393 42.6202 280.098 51.9173 280.098H253.937C244.64 280.098 237.102 272.393 237.102 262.891Z"
              fill="#1C9E95"/>
        <path fill-rule="evenodd" clip-rule="evenodd"
              d="M163.028 232.357C190.921 232.357 213.533 209.698 213.533 181.748C213.533 153.797 190.921 131.139 163.028 131.139C135.135 131.139 112.523 153.797 112.523 181.748C112.523 209.698 135.135 232.357 163.028 232.357Z"
              fill="#8DF2EB"/>
        <path fill-rule="evenodd" clip-rule="evenodd"
              d="M53.6007 223.922C76.845 223.922 95.6882 205.04 95.6882 181.748C95.6882 158.456 76.845 139.574 53.6007 139.574C30.3564 139.574 11.5132 158.456 11.5132 181.748C11.5132 205.04 30.3564 223.922 53.6007 223.922Z"
              fill="#8DF2EB"/>
        <path fill-rule="evenodd" clip-rule="evenodd"
              d="M181.5 172.169H151.634L150.118 180.272C149.724 186.142 152.551 191.768 157.515 194.994C170.808 194.781 181.5 184.666 181.5 172.169Z"
              fill="#BE1E2D"/>
        <path fill-rule="evenodd" clip-rule="evenodd"
              d="M183.046 180.272L181.538 172.169H181.5C181.5 184.666 170.808 194.781 157.515 194.994C160.979 197.277 165.193 198.164 169.294 197.474C177.661 196.099 183.61 188.658 183.046 180.272Z"
              fill="#AB1B28"/>
        <path fill-rule="evenodd" clip-rule="evenodd"
              d="M181.538 172.169L178.788 157.387H174.041L169.294 172.169H181.538Z" fill="#E6E7E8"/>
        <path fill-rule="evenodd" clip-rule="evenodd"
              d="M174.041 157.387H154.377L151.679 171.927L151.634 172.169H169.295L174.041 157.387Z" fill="#E6E7E8"/>
        <path fill-rule="evenodd" clip-rule="evenodd"
              d="M139.459 157.387H154.377L143.826 146.932C141.025 149.702 139.453 153.465 139.459 157.387Z"
              fill="#FF9811"/>
        <path fill-rule="evenodd" clip-rule="evenodd"
              d="M143.826 146.932L154.377 157.387V142.605C150.419 142.598 146.621 144.156 143.826 146.932Z"
              fill="#FFCD00"/>
        <path fill-rule="evenodd" clip-rule="evenodd"
              d="M143.826 167.842L154.377 157.387V172.169C150.419 172.176 146.621 170.618 143.826 167.842Z"
              fill="#FFB655"/>
        <path fill-rule="evenodd" clip-rule="evenodd"
              d="M154.377 142.605V157.387L164.928 146.932C162.132 144.156 158.335 142.598 154.377 142.605Z"
              fill="#FF9811"/>
        <path fill-rule="evenodd" clip-rule="evenodd"
              d="M154.377 172.169V157.387L164.928 167.842C162.132 170.618 158.335 172.176 154.377 172.169Z"
              fill="#FFC477"/>
        <path fill-rule="evenodd" clip-rule="evenodd"
              d="M164.928 146.932L154.377 157.387H169.295C169.301 153.465 167.73 149.702 164.928 146.932Z"
              fill="#FFCD00"/>
        <path fill-rule="evenodd" clip-rule="evenodd"
              d="M151.678 171.927L154.377 157.387L143.826 167.842C145.963 169.963 148.703 171.388 151.678 171.927Z"
              fill="#FF9811"/>
        <path fill-rule="evenodd" clip-rule="evenodd"
              d="M143.826 167.842L154.377 157.387H139.459C139.453 161.309 141.025 165.072 143.826 167.842Z"
              fill="#FFCD00"/>
        <path fill-rule="evenodd" clip-rule="evenodd"
              d="M164.928 167.842L154.377 157.387H169.295C169.301 161.309 167.73 165.072 164.928 167.842Z"
              fill="#FFE477"/>
        <path fill-rule="evenodd" clip-rule="evenodd"
              d="M163.87 197.474V216.516C160.256 216.56 156.718 217.552 153.617 219.392L151.665 220.548H181.5L179.547 219.392C176.447 217.552 172.909 216.56 169.295 216.516V197.474C167.499 197.779 165.665 197.779 163.87 197.474Z"
              fill="#A7A9AC"/>
        <path fill-rule="evenodd" clip-rule="evenodd"
              d="M157.185 183.861C156.989 183.12 156.881 182.358 156.864 181.592C156.833 180.856 156.222 180.276 155.479 180.276C155.12 180.283 154.777 180.432 154.528 180.689C154.279 180.947 154.144 181.292 154.152 181.649C154.172 182.628 154.308 183.601 154.558 184.549C154.716 185.138 155.254 185.548 155.869 185.549C155.986 185.548 156.103 185.534 156.217 185.504C156.566 185.414 156.864 185.19 157.045 184.882C157.227 184.574 157.277 184.206 157.185 183.861Z"
              fill="#F1F2F2"/>
        <path fill-rule="evenodd" clip-rule="evenodd"
              d="M166.582 190.983C166.051 190.983 165.521 190.939 164.997 190.849C162.682 190.481 160.581 189.294 159.082 187.508C158.777 187.124 158.286 186.933 157.8 187.011C157.312 187.088 156.906 187.421 156.739 187.881C156.571 188.34 156.669 188.853 156.993 189.221C159.372 192.031 162.881 193.658 166.582 193.671C167.331 193.671 167.938 193.069 167.938 192.327C167.938 191.585 167.331 190.983 166.582 190.983Z"
              fill="#F1F2F2"/>
        <path fill-rule="evenodd" clip-rule="evenodd"
              d="M186.925 141.261H180.77C178.995 141.254 177.422 142.393 176.889 144.071L168.288 172.169H171.123L179.48 144.889C179.656 144.33 180.179 143.95 180.77 143.948H186.925C187.674 143.948 188.281 143.347 188.281 142.605C188.281 141.862 187.674 141.261 186.925 141.261Z"
              fill="#FF9811"/>
        <path fill-rule="evenodd" clip-rule="evenodd"
              d="M230.368 181.748C230.368 158.455 249.211 139.574 272.456 139.574C295.701 139.574 314.543 158.455 314.543 181.748C314.543 200.732 302.024 216.786 284.807 222.075C281.65 221.667 278.403 221.453 275.09 221.453C270.567 221.453 266.169 221.851 261.952 222.597C243.79 217.922 230.368 201.405 230.368 181.748Z"
              fill="#8DF2EB"/>
        <path fill-rule="evenodd" clip-rule="evenodd"
              d="M291.198 179.606V182.937C291.198 184.914 290.022 186.701 288.209 187.479L287.834 187.64C286.085 188.391 284.951 190.115 284.951 192.022V222.032C281.003 223.26 276.807 223.922 272.456 223.922C268.823 223.922 265.297 223.46 261.934 222.593V191.673C261.934 190.162 261.219 188.741 260.008 187.841C257.497 185.977 256.016 183.031 256.016 179.899V150.282C256.016 148.034 257.813 146.207 260.046 146.164C262.35 146.12 264.236 148.066 264.236 150.375V162.583H264.33C264.732 160.73 266.377 159.343 268.346 159.343C270.315 159.343 271.96 160.73 272.362 162.583H272.55C272.952 160.73 274.597 159.343 276.566 159.343C278.535 159.343 280.18 160.73 280.582 162.583H280.676V143.692C280.676 141.417 282.516 139.574 284.786 139.574C287.057 139.574 288.896 141.417 288.896 143.692V179.606H291.198Z"
              fill="#FFBFAB"/>
        <path fill-rule="evenodd" clip-rule="evenodd"
              d="M285.223 174.97C284.742 174.295 284.458 173.47 284.458 172.577V141.99C284.458 141.097 284.742 140.272 285.223 139.597C285.08 139.582 284.934 139.574 284.786 139.574C282.516 139.574 280.676 141.417 280.676 143.692V170.875C280.676 173.15 282.516 174.993 284.786 174.993C284.934 174.993 285.08 174.985 285.223 174.97ZM276.939 175.8C276.817 175.81 276.692 175.817 276.566 175.817C274.296 175.817 272.456 173.973 272.456 171.698V163.461C272.456 161.186 274.296 159.343 276.566 159.343C276.692 159.343 276.817 159.349 276.939 159.36C275.954 160.113 275.318 161.3 275.318 162.638V172.522C275.318 173.859 275.954 175.047 276.939 175.8ZM268.346 175.817C268.472 175.817 268.596 175.81 268.719 175.8C267.734 175.047 267.098 173.859 267.098 172.522V162.638C267.098 161.3 267.734 160.113 268.719 159.36C268.596 159.349 268.472 159.343 268.346 159.343C266.076 159.343 264.236 161.186 264.236 163.461V171.698C264.236 173.973 266.076 175.817 268.346 175.817ZM266.615 187.019H276.345C277.221 187.019 277.986 187.682 278.043 188.557C278.104 189.517 277.346 190.314 276.402 190.314H270.239C267.922 190.314 266.044 192.196 266.044 194.517V223.435C264.651 223.221 263.28 222.94 261.934 222.593V191.673C261.934 190.162 261.22 188.74 260.008 187.841C257.497 185.977 256.016 183.03 256.016 179.899V150.282C256.016 148.034 257.813 146.207 260.046 146.164C260.336 146.159 260.62 146.185 260.893 146.239C260.41 146.914 260.126 147.741 260.126 148.635V178.251C260.126 181.383 261.607 184.329 264.118 186.194C264.841 186.73 265.716 187.019 266.615 187.019Z"
              fill="#FFA78F"/>
        <path fill-rule="evenodd" clip-rule="evenodd"
              d="M268.346 174.169C269.83 174.169 271.052 172.882 271.206 171.229C271.224 171.038 271.07 170.875 270.878 170.875H265.814C265.622 170.875 265.468 171.038 265.486 171.229C265.64 172.882 266.862 174.169 268.346 174.169ZM274.034 170.875H279.098C279.29 170.875 279.445 171.038 279.427 171.229C279.272 172.882 278.05 174.169 276.566 174.169C275.082 174.169 273.86 172.882 273.706 171.229C273.688 171.038 273.843 170.875 274.034 170.875Z"
              fill="#FFEEE6"/>
        <path fill-rule="evenodd" clip-rule="evenodd"
              d="M291.113 174.17C291.222 174.713 291.196 176.358 291.196 176.641V183.23C291.196 185.505 289.355 187.349 287.085 187.349C284.815 187.349 282.975 185.505 282.975 183.23V176.699L278.366 172.081C276.761 170.473 276.761 167.865 278.366 166.257C279.972 164.648 282.574 164.648 284.179 166.257L289.991 172.081C290.584 172.675 290.957 173.405 291.113 174.17Z"
              fill="#FFA78F"/>
        <path fill-rule="evenodd" clip-rule="evenodd"
              d="M285.666 181.396V175.677L280.624 170.626C279.186 169.185 278.931 167.012 279.849 165.306C281.307 164.767 283.008 165.083 284.179 166.257L289.991 172.081C290.584 172.675 290.957 173.405 291.113 174.17C291.222 174.713 291.196 176.358 291.196 176.641V183.23C291.196 185.505 289.355 187.349 287.085 187.349C286.586 187.349 286.108 187.26 285.666 187.097V181.396Z"
              fill="#FFCEBF"/>
        <path fill-rule="evenodd" clip-rule="evenodd"
              d="M283.517 167.08C283.665 167.203 283.671 167.428 283.535 167.564L279.954 171.152C279.82 171.287 279.594 171.281 279.472 171.133C278.415 169.855 278.371 168.079 279.42 167.028C280.469 165.976 282.242 166.02 283.517 167.08Z"
              fill="#FFEEE6"/>
        <path fill-rule="evenodd" clip-rule="evenodd"
              d="M285.608 200.528H261.112C260.204 200.528 259.468 199.791 259.468 198.881C259.468 197.971 260.204 197.233 261.112 197.233H285.608C286.516 197.233 287.252 197.971 287.252 198.881C287.252 199.791 286.516 200.528 285.608 200.528Z"
              fill="#08A8F0"/>
        <path fill-rule="evenodd" clip-rule="evenodd"
              d="M285.608 200.528H265.88C264.972 200.528 264.236 199.791 264.236 198.881C264.236 197.971 264.972 197.233 265.88 197.233H285.608C286.516 197.233 287.252 197.971 287.252 198.881C287.252 199.791 286.516 200.528 285.608 200.528Z"
              fill="#01CFFA"/>
        <path fill-rule="evenodd" clip-rule="evenodd"
              d="M66.8858 162.403C66.5973 162.114 66.1297 162.114 65.8413 162.403C65.5532 162.692 65.5532 163.16 65.8413 163.449L73.4469 171.07C73.5912 171.214 73.78 171.287 73.9692 171.287C74.158 171.287 74.3472 171.214 74.4914 171.07C74.7795 170.781 74.7795 170.313 74.4914 170.024L66.8858 162.403Z"
              fill="#50475E"/>
        <path fill-rule="evenodd" clip-rule="evenodd"
              d="M76.8122 167.474L69.4207 160.068C69.1319 159.779 68.6647 159.779 68.3762 160.068C68.0878 160.357 68.0878 160.825 68.3762 161.114L75.7677 168.521C75.9119 168.665 76.1011 168.738 76.2899 168.738C76.4788 168.738 76.668 168.665 76.8122 168.521C77.1002 168.232 77.1002 167.763 76.8122 167.474Z"
              fill="#50475E"/>
        <path fill-rule="evenodd" clip-rule="evenodd"
              d="M78.017 165.633C77.8282 165.633 77.6394 165.561 77.4951 165.417L71.4831 159.392C71.1951 159.104 71.1951 158.635 71.4831 158.347C71.7712 158.058 72.2384 158.058 72.5265 158.347L78.5389 164.372C78.8269 164.66 78.8269 165.128 78.5389 165.417C78.3947 165.561 78.2058 165.633 78.017 165.633Z"
              fill="#50475E"/>
        <path fill-rule="evenodd" clip-rule="evenodd"
              d="M51.6304 205.456C46.8382 210.258 38.3819 209.553 32.826 203.856C27.3201 198.21 26.8228 189.726 31.7165 185.086C33.2709 183.613 35.1849 182.693 37.2486 182.311C40.8462 181.646 43.7767 179.457 45.4372 176.327C45.856 175.537 46.4267 174.833 47.0847 174.174C54.2562 166.987 70.0764 182.484 62.5268 190.049C61.9642 190.613 61.3366 191.079 60.6617 191.449C57.5305 193.165 55.2746 196.064 54.6035 199.703C54.2051 201.865 53.2202 203.863 51.6304 205.456Z"
              fill="#B0693C"/>
        <path fill-rule="evenodd" clip-rule="evenodd"
              d="M59.0854 175.449C62.2377 179.277 63.576 184.289 60.1772 187.695C59.6145 188.259 58.9869 188.725 58.312 189.095C55.1808 190.811 52.9249 193.709 52.2542 197.349C51.8554 199.511 50.8705 201.509 49.2807 203.102C44.8689 207.523 37.3505 207.276 31.8496 202.762C32.1553 203.137 32.4807 203.502 32.826 203.856C38.3823 209.554 46.8383 210.258 51.6304 205.456C53.2203 203.863 54.2051 201.865 54.6036 199.703C55.2746 196.064 57.5305 193.165 60.6617 191.449C61.3366 191.079 61.9643 190.613 62.5269 190.049C66.6841 185.884 63.7544 179.313 59.0854 175.449Z"
              fill="#9C5D35"/>
        <path fill-rule="evenodd" clip-rule="evenodd"
              d="M42.3638 202.37L34.5966 194.586C33.8656 193.854 33.8656 192.666 34.5966 191.933C35.3281 191.201 36.5133 191.201 37.2444 191.933L45.0116 199.716C45.7427 200.449 45.7427 201.637 45.0116 202.37C44.2805 203.102 43.0949 203.102 42.3638 202.37Z"
              fill="#FFD659"/>
        <path fill-rule="evenodd" clip-rule="evenodd"
              d="M48.7024 183.923L69.4273 163.155L73.7303 167.467L53.0054 188.235L48.7024 183.923Z" fill="#EBE4E2"/>
        <path fill-rule="evenodd" clip-rule="evenodd"
              d="M50.854 186.079L71.579 165.311L73.7303 167.467L53.0053 188.235L50.854 186.079Z" fill="#D1C4C4"/>
        <path fill-rule="evenodd" clip-rule="evenodd"
              d="M51.7597 185.171C49.7791 183.187 46.5684 183.187 44.5882 185.171C42.6076 187.155 42.6076 190.373 44.5882 192.357C46.5684 194.342 49.7791 194.342 51.7597 192.357C53.7399 190.373 53.7399 187.155 51.7597 185.171Z"
              fill="#594F69"/>
        <path fill-rule="evenodd" clip-rule="evenodd"
              d="M51.7602 185.171C50.378 183.786 48.3971 183.369 46.6531 183.917C47.408 184.154 48.1191 184.571 48.7175 185.171C50.698 187.155 50.698 190.373 48.7175 192.357C48.1191 192.957 47.408 193.374 46.6531 193.611C48.3971 194.159 50.378 193.742 51.7602 192.357C53.7403 190.373 53.7403 187.155 51.7602 185.171Z"
              fill="#50475E"/>
        <path fill-rule="evenodd" clip-rule="evenodd"
              d="M70.6287 170.826L66.0853 166.273C65.8815 166.069 65.8919 165.735 66.108 165.544L74.3682 158.255C74.5659 158.081 74.8651 158.09 75.0512 158.277L78.6085 161.841C78.7947 162.028 78.8043 162.328 78.6301 162.526L71.3563 170.803C71.1659 171.02 70.8321 171.03 70.6287 170.826Z"
              fill="#B0693C"/>
        <path fill-rule="evenodd" clip-rule="evenodd"
              d="M78.6086 161.841L76.445 159.673C76.6311 159.86 76.6407 160.16 76.4665 160.358L69.1927 168.635C69.0023 168.851 68.6685 168.862 68.4651 168.658L70.6287 170.826C70.8325 171.03 71.1659 171.02 71.3563 170.803L78.6305 162.526C78.8043 162.328 78.7947 162.028 78.6086 161.841Z"
              fill="#9C5D35"/>
        <path fill-rule="evenodd" clip-rule="evenodd"
              d="M66.346 172.175L64.7231 170.548C64.4346 170.259 63.9674 170.259 63.679 170.548C63.3905 170.837 63.3905 171.306 63.679 171.595L65.3019 173.221C65.4461 173.365 65.6349 173.437 65.8237 173.437C66.0129 173.437 66.2018 173.365 66.346 173.221C66.6344 172.932 66.6344 172.464 66.346 172.175Z"
              fill="#50475E"/>
        <path fill-rule="evenodd" clip-rule="evenodd"
              d="M62.4748 172.801C62.1864 172.512 61.7191 172.512 61.4307 172.801C61.1422 173.09 61.1422 173.558 61.4307 173.847L63.0536 175.473C63.1978 175.618 63.3866 175.69 63.5754 175.69C63.7646 175.69 63.9535 175.618 64.0977 175.473C64.3861 175.184 64.3861 174.716 64.0977 174.427L62.4748 172.801Z"
              fill="#50475E"/>
        <path fill-rule="evenodd" clip-rule="evenodd"
              d="M60.2265 175.054C59.9385 174.765 59.4708 174.765 59.1824 175.054C58.894 175.343 58.894 175.811 59.1824 176.1L60.8049 177.726C60.9495 177.871 61.1383 177.943 61.3271 177.943C61.5163 177.943 61.7052 177.871 61.8494 177.726C62.1378 177.437 62.1378 176.969 61.8494 176.68L60.2265 175.054Z"
              fill="#50475E"/>
        <path fill-rule="evenodd" clip-rule="evenodd"
              d="M57.9782 177.307C57.6898 177.018 57.2225 177.018 56.9341 177.307C56.6457 177.596 56.6457 178.064 56.9341 178.353L58.5566 179.979C58.7012 180.123 58.89 180.196 59.0789 180.196C59.2681 180.196 59.4569 180.124 59.6011 179.979C59.8895 179.69 59.8895 179.221 59.6011 178.932L57.9782 177.307Z"
              fill="#50475E"/>
        <path fill-rule="evenodd" clip-rule="evenodd"
              d="M55.7302 179.56C55.4417 179.271 54.9745 179.271 54.686 179.56C54.3976 179.849 54.3976 180.317 54.686 180.606L56.3089 182.232C56.4532 182.377 56.642 182.449 56.8312 182.449C57.02 182.449 57.2088 182.377 57.3531 182.232C57.6415 181.943 57.6415 181.474 57.3531 181.186L55.7302 179.56Z"
              fill="#50475E"/>
        <path fill-rule="evenodd" clip-rule="evenodd"
              d="M69.9274 165.162C69.639 164.873 69.1717 164.873 68.8833 165.162C68.5949 165.451 68.5949 165.919 68.8833 166.208C69.1717 166.497 69.639 166.497 69.9274 166.208C70.2159 165.919 70.2159 165.451 69.9274 165.162Z"
              fill="#50475E"/>
        <path fill-rule="evenodd" clip-rule="evenodd"
              d="M71.7529 166.976C71.4648 166.687 70.9972 166.687 70.7088 166.976C70.4203 167.265 70.4203 167.733 70.7088 168.022C70.9972 168.311 71.4648 168.311 71.7529 168.022C72.0413 167.733 72.0413 167.265 71.7529 166.976Z"
              fill="#50475E"/>
        <path fill-rule="evenodd" clip-rule="evenodd"
              d="M72.2116 162.873C71.9232 162.584 71.4555 162.584 71.1675 162.873C70.8791 163.162 70.8791 163.63 71.1675 163.919C71.4555 164.208 71.9232 164.208 72.2116 163.919C72.5 163.63 72.5 163.162 72.2116 162.873Z"
              fill="#50475E"/>
        <path fill-rule="evenodd" clip-rule="evenodd"
              d="M74.0374 164.687C73.749 164.399 73.2813 164.399 72.9929 164.687C72.7048 164.976 72.7048 165.445 72.9929 165.734C73.2813 166.023 73.749 166.023 74.0374 165.734C74.3254 165.445 74.3254 164.976 74.0374 164.687Z"
              fill="#50475E"/>
        <path fill-rule="evenodd" clip-rule="evenodd"
              d="M74.4958 160.584C74.2074 160.296 73.7401 160.296 73.4517 160.584C73.1632 160.873 73.1632 161.342 73.4517 161.631C73.7401 161.919 74.2074 161.919 74.4958 161.631C74.7842 161.342 74.7842 160.873 74.4958 160.584Z"
              fill="#50475E"/>
        <path fill-rule="evenodd" clip-rule="evenodd"
              d="M76.3212 162.398C76.0328 162.109 75.5655 162.109 75.2771 162.398C74.9887 162.687 74.9887 163.156 75.2771 163.445C75.5655 163.734 76.0328 163.734 76.3212 163.445C76.6097 163.156 76.6097 162.687 76.3212 162.398Z"
              fill="#50475E"/>
        <path fill-rule="evenodd" clip-rule="evenodd"
              d="M31.1828 161.33C31.0959 160.93 30.7021 160.677 30.3041 160.764C29.9056 160.852 29.6534 161.246 29.7403 161.645L32.1208 172.582C32.1962 172.928 32.5019 173.164 32.8415 173.164C32.8938 173.164 32.9465 173.159 32.9995 173.147C33.3979 173.06 33.6506 172.665 33.5637 172.266L31.1828 161.33Z"
              fill="#594F69"/>
        <path fill-rule="evenodd" clip-rule="evenodd"
              d="M43.1142 170.178L40.7337 159.242C40.6468 158.843 40.2526 158.589 39.855 158.677C39.4565 158.764 39.2039 159.158 39.2908 159.558L41.6717 170.494C41.7471 170.84 42.0528 171.076 42.3924 171.076C42.4443 171.076 42.4974 171.071 42.5501 171.059C42.9485 170.972 43.2011 170.578 43.1142 170.178Z"
              fill="#594F69"/>
        <path fill-rule="evenodd" clip-rule="evenodd"
              d="M33.5626 172.261C33.8734 173.689 32.8819 174.692 31.4575 175.003C30.0327 175.315 28.7147 174.816 28.404 173.389C28.0933 171.961 29.1228 171.029 30.5472 170.718C31.9717 170.406 33.2519 170.834 33.5626 172.261Z"
              fill="#685C79"/>
        <path fill-rule="evenodd" clip-rule="evenodd"
              d="M43.1132 170.173C43.4239 171.601 42.4325 172.604 41.008 172.916C39.5832 173.227 38.2653 172.729 37.9545 171.301C37.6438 169.874 38.6733 168.941 40.0978 168.63C41.5222 168.318 42.8024 168.746 43.1132 170.173Z"
              fill="#685C79"/>
        <path fill-rule="evenodd" clip-rule="evenodd"
              d="M41.1559 161.182L30.1625 163.585L29.6149 161.069C29.5349 160.701 29.7672 160.339 30.1333 160.259L39.8003 158.146C40.1664 158.066 40.5283 158.299 40.6083 158.666L41.1559 161.182Z"
              fill="#685C79"/>
        <path fill-rule="evenodd" clip-rule="evenodd"
              d="M68.9108 192.339C68.5308 192.19 68.1028 192.38 67.9551 192.76L63.9094 203.194C63.7618 203.575 63.9502 204.004 64.3305 204.152C64.4182 204.186 64.5086 204.202 64.5978 204.202C64.8936 204.202 65.1728 204.023 65.2862 203.73L69.3315 193.296C69.4792 192.915 69.2907 192.487 68.9108 192.339Z"
              fill="#E62753"/>
        <path fill-rule="evenodd" clip-rule="evenodd"
              d="M78.0224 195.886C77.6424 195.738 77.2144 195.927 77.0667 196.307L73.021 206.741C72.8733 207.122 73.0618 207.551 73.4421 207.699C73.5298 207.733 73.6202 207.75 73.709 207.75C74.0047 207.75 74.2839 207.57 74.3978 207.277L78.4431 196.843C78.5908 196.462 78.4023 196.034 78.0224 195.886Z"
              fill="#E62753"/>
        <path fill-rule="evenodd" clip-rule="evenodd"
              d="M77.7781 198.559L67.29 194.476L68.2207 192.076C68.3565 191.726 68.7495 191.552 69.0991 191.688L78.3218 195.279C78.671 195.415 78.8445 195.809 78.7087 196.159L77.7781 198.559Z"
              fill="#FF2C5C"/>
        <path fill-rule="evenodd" clip-rule="evenodd"
              d="M65.2809 203.722C64.7536 205.082 63.3761 205.369 62.0189 204.841C60.6622 204.312 59.8392 203.169 60.3664 201.809C60.8937 200.449 62.2639 200.242 63.6207 200.771C64.9778 201.299 65.8077 202.362 65.2809 203.722Z"
              fill="#FF2C5C"/>
        <path fill-rule="evenodd" clip-rule="evenodd"
              d="M74.3986 207.271C73.871 208.633 72.4915 208.92 71.1328 208.391C69.7741 207.862 68.95 206.717 69.478 205.356C70.006 203.994 71.3778 203.787 72.7365 204.316C74.0956 204.845 74.9266 205.91 74.3986 207.271Z"
              fill="#FF2C5C"/>
        <path fill-rule="evenodd" clip-rule="evenodd"
              d="M97.3718 36.6696C100.161 36.6696 102.422 34.4038 102.422 31.6087C102.422 28.8137 100.161 26.5479 97.3718 26.5479C94.5825 26.5479 92.3213 28.8137 92.3213 31.6087C92.3213 34.4038 94.5825 36.6696 97.3718 36.6696Z"
              fill="#C77BD4"/>
        <path fill-rule="evenodd" clip-rule="evenodd"
              d="M172.887 11.9957C172.629 10.47 171.234 9.45305 169.772 9.72108C168.311 9.99047 167.335 11.4459 167.593 12.9716C168.326 17.3027 166.537 18.4121 162.747 20.3201C159.343 22.0336 153.646 24.9021 157.056 33.3238C159.649 39.7292 156.974 41.2744 156.974 41.2744C156.222 41.795 153.844 42.7175 154.859 45.2423C156.613 49.6063 167.498 44.7001 162.007 31.1406C160.632 27.7439 161.301 27.278 165.083 25.3738C168.778 23.5131 174.361 20.7024 172.887 11.9957Z"
              fill="#FFD51B"/>
    </g>
    <defs>
        <linearGradient id="paint0_linear" x1="74.4757" y1="129.842" x2="74.4757" y2="264.379"
                        gradientUnits="userSpaceOnUse">
            <stop stop-color="#7ED9D3"/>
            <stop offset="1" stop-color="#27D9CD"/>
        </linearGradient>
        <linearGradient id="paint1_linear" x1="72.9009" y1="129.842" x2="72.9009" y2="264.379"
                        gradientUnits="userSpaceOnUse">
            <stop stop-color="#78CFC9"/>
            <stop offset="1" stop-color="#23C4BA"/>
        </linearGradient>
        <linearGradient id="paint2_linear" x1="74.4757" y1="83.7398" x2="74.4757" y2="110.695"
                        gradientUnits="userSpaceOnUse">
            <stop stop-color="#7DD8D2"/>
            <stop offset="1" stop-color="#24C9BE"/>
        </linearGradient>
        <linearGradient id="paint3_linear" x1="239.68" y1="71.1071" x2="239.68" y2="96.7996"
                        gradientUnits="userSpaceOnUse">
            <stop stop-color="#FFD92E"/>
            <stop offset="1" stop-color="#FFD002"/>
        </linearGradient>
        <linearGradient id="paint4_linear" x1="87.3355" y1="71.1071" x2="87.3355" y2="96.7996"
                        gradientUnits="userSpaceOnUse">
            <stop stop-color="#FFD92E"/>
            <stop offset="1" stop-color="#FFD002"/>
        </linearGradient>
        <clipPath id="clip0">
            <rect width="330" height="330" fill="white"/>
        </clipPath>
    </defs>
</svg>
